<svg width="20" height="20" viewBox="0 0 20 20" fill="none" xmlns="http://www.w3.org/2000/svg">
<path fill-rule="evenodd" clip-rule="evenodd" d="M14.9167 3.5C14.6838 3.18951 14.3818 2.9375 14.0347 2.76393C13.6876 2.59036 13.3048 2.5 12.9167 2.5H3.75C3.08696 2.5 2.45107 2.76339 1.98223 3.23223C1.51339 3.70107 1.25 4.33696 1.25 5V15C1.25 15.663 1.51339 16.2989 1.98223 16.7678C2.45107 17.2366 3.08696 17.5 3.75 17.5H12.9167C13.3048 17.5 13.6876 17.4096 14.0347 17.2361C14.3818 17.0625 14.6838 16.8105 14.9167 16.5L18.6667 11.5C18.9912 11.0673 19.1667 10.5409 19.1667 10C19.1667 9.45907 18.9912 8.93274 18.6667 8.5L14.9167 3.5Z" fill="#6B5A3D"/>
</svg>
