<svg width="20" height="20" viewBox="0 0 20 20" fill="none" xmlns="http://www.w3.org/2000/svg">
<g clip-path="url(#clip0_210_756)">
<path d="M8.3335 12.2166V13.5716C8.33035 13.8571 8.2539 14.1371 8.11148 14.3845C7.96906 14.632 7.76545 14.8388 7.52016 14.9849C6.99945 15.3706 6.57586 15.8724 6.28307 16.4505C5.99027 17.0286 5.83634 17.667 5.8335 18.3149" stroke="white" stroke-width="1.66667" stroke-linecap="round" stroke-linejoin="round"/>
<path d="M11.6665 12.2166V13.5716C11.6697 13.8571 11.7461 14.1371 11.8885 14.3845C12.0309 14.632 12.2346 14.8388 12.4798 14.9849C13.0006 15.3706 13.4241 15.8724 13.7169 16.4505C14.0097 17.0286 14.1637 17.667 14.1665 18.3149" stroke="white" stroke-width="1.66667" stroke-linecap="round" stroke-linejoin="round"/>
<path d="M15 7.49998H16.25C16.8025 7.49998 17.3324 7.28049 17.7231 6.88979C18.1138 6.49908 18.3333 5.96918 18.3333 5.41665C18.3333 4.86411 18.1138 4.33421 17.7231 3.94351C17.3324 3.55281 16.8025 3.33331 16.25 3.33331H15" stroke="white" stroke-width="1.66667" stroke-linecap="round" stroke-linejoin="round"/>
<path d="M3.3335 18.3333H16.6668" stroke="white" stroke-width="1.66667" stroke-linecap="round" stroke-linejoin="round"/>
<path d="M5 7.50002C5 8.8261 5.52678 10.0979 6.46447 11.0356C7.40215 11.9732 8.67392 12.5 10 12.5C11.3261 12.5 12.5979 11.9732 13.5355 11.0356C14.4732 10.0979 15 8.8261 15 7.50002V2.50002C15 2.27901 14.9122 2.06704 14.7559 1.91076C14.5996 1.75448 14.3877 1.66669 14.1667 1.66669H5.83333C5.61232 1.66669 5.40036 1.75448 5.24408 1.91076C5.0878 2.06704 5 2.27901 5 2.50002V7.50002Z" stroke="white" stroke-width="1.66667" stroke-linecap="round" stroke-linejoin="round"/>
<path d="M4.99984 7.49998H3.74984C3.1973 7.49998 2.6674 7.28049 2.2767 6.88979C1.886 6.49908 1.6665 5.96918 1.6665 5.41665C1.6665 4.86411 1.886 4.33421 2.2767 3.94351C2.6674 3.55281 3.1973 3.33331 3.74984 3.33331H4.99984" stroke="white" stroke-width="1.66667" stroke-linecap="round" stroke-linejoin="round"/>
</g>
<defs>
<clipPath id="clip0_210_756">
<rect width="20" height="20" fill="white"/>
</clipPath>
</defs>
</svg>
