<svg width="28" height="28" viewBox="0 0 28 28" fill="none" xmlns="http://www.w3.org/2000/svg">
<path d="M11.9795 24.5C12.1843 24.8547 12.4788 25.1492 12.8335 25.354C13.1882 25.5588 13.5906 25.6666 14.0002 25.6666C14.4097 25.6666 14.8121 25.5588 15.1668 25.354C15.5215 25.1492 15.816 24.8547 16.0208 24.5" stroke="white" stroke-width="2.33333" stroke-linecap="round" stroke-linejoin="round"/>
<path d="M3.80579 17.8803C3.65338 18.0473 3.5528 18.255 3.51629 18.4782C3.47977 18.7013 3.5089 18.9303 3.60012 19.1372C3.69133 19.3441 3.84072 19.5201 4.03009 19.6436C4.21946 19.7672 4.44067 19.8331 4.66679 19.8333H23.3335C23.5596 19.8333 23.7808 19.7677 23.9703 19.6444C24.1598 19.521 24.3094 19.3453 24.4008 19.1385C24.4923 18.9317 24.5217 18.7028 24.4855 18.4797C24.4492 18.2565 24.349 18.0486 24.1968 17.8814C22.6451 16.2819 21.0001 14.5821 21.0001 9.33325C21.0001 7.47674 20.2626 5.69626 18.9499 4.3835C17.6371 3.07075 15.8566 2.33325 14.0001 2.33325C12.1436 2.33325 10.3631 3.07075 9.05038 4.3835C7.73762 5.69626 7.00012 7.47674 7.00012 9.33325C7.00012 14.5821 5.35396 16.2819 3.80579 17.8803Z" stroke="white" stroke-width="2.33333" stroke-linecap="round" stroke-linejoin="round"/>
</svg>
