<svg width="28" height="28" viewBox="0 0 28 28" fill="none" xmlns="http://www.w3.org/2000/svg">
<path d="M3.49047 19.0655C3.66201 19.4982 3.70021 19.9724 3.60014 20.427L2.35764 24.2653C2.3176 24.46 2.32795 24.6616 2.38771 24.8511C2.44746 25.0407 2.55464 25.2118 2.69908 25.3483C2.84352 25.4848 3.02043 25.5821 3.21304 25.6311C3.40564 25.68 3.60756 25.6789 3.79964 25.628L7.78147 24.4636C8.21047 24.3785 8.65475 24.4157 9.06364 24.571C11.5549 25.7344 14.3771 25.9805 17.0321 25.266C19.6872 24.5514 22.0046 22.9221 23.5755 20.6654C25.1463 18.4087 25.8696 15.6698 25.6178 12.9318C25.366 10.1938 24.1553 7.63269 22.1992 5.70037C20.2431 3.76805 17.6675 2.58868 14.9266 2.37035C12.1857 2.15202 9.45579 2.90875 7.21848 4.50703C4.98118 6.10532 3.38026 8.44244 2.69818 11.106C2.0161 13.7697 2.2967 16.5886 3.49047 19.0655Z" stroke="white" stroke-width="2.33333" stroke-linecap="round" stroke-linejoin="round"/>
</svg>
