<svg width="28" height="28" viewBox="0 0 28 28" fill="none" xmlns="http://www.w3.org/2000/svg">
<path d="M25.6668 13.9999H22.7735C22.2636 13.9988 21.7674 14.1648 21.3608 14.4724C20.9542 14.78 20.6595 15.2123 20.5218 15.7033L17.7802 25.4566C17.7625 25.5172 17.7256 25.5704 17.6752 25.6083C17.6247 25.6461 17.5633 25.6666 17.5002 25.6666C17.4371 25.6666 17.3757 25.6461 17.3252 25.6083C17.2747 25.5704 17.2378 25.5172 17.2202 25.4566L10.7802 2.54325C10.7625 2.48267 10.7256 2.42945 10.6752 2.39159C10.6247 2.35372 10.5633 2.33325 10.5002 2.33325C10.4371 2.33325 10.3757 2.35372 10.3252 2.39159C10.2747 2.42945 10.2378 2.48267 10.2202 2.54325L7.4785 12.2966C7.34137 12.7856 7.04844 13.2165 6.64417 13.5239C6.2399 13.8313 5.74637 13.9985 5.2385 13.9999H2.3335" stroke="white" stroke-width="2.33333" stroke-linecap="round" stroke-linejoin="round"/>
</svg>
