<svg width="28" height="28" viewBox="0 0 28 28" fill="none" xmlns="http://www.w3.org/2000/svg">
<path d="M11.9792 24.5C12.184 24.8547 12.4786 25.1492 12.8333 25.354C13.188 25.5588 13.5903 25.6666 13.9999 25.6666C14.4095 25.6666 14.8118 25.5588 15.1665 25.354C15.5212 25.1492 15.8158 24.8547 16.0206 24.5" stroke="#D3B47B" stroke-width="2.33333" stroke-linecap="round" stroke-linejoin="round"/>
<path d="M3.80579 17.8803C3.65338 18.0474 3.5528 18.2551 3.51629 18.4783C3.47977 18.7014 3.5089 18.9304 3.60012 19.1373C3.69133 19.3442 3.84072 19.5201 4.03009 19.6437C4.21946 19.7673 4.44067 19.8331 4.66679 19.8333H23.3335C23.5596 19.8334 23.7808 19.7678 23.9703 19.6444C24.1598 19.5211 24.3094 19.3454 24.4008 19.1386C24.4923 18.9318 24.5217 18.7029 24.4855 18.4797C24.4492 18.2566 24.349 18.0487 24.1968 17.8815C22.6451 16.282 21.0001 14.5821 21.0001 9.33331C21.0001 7.4768 20.2626 5.69632 18.9499 4.38357C17.6371 3.07081 15.8566 2.33331 14.0001 2.33331C12.1436 2.33331 10.3631 3.07081 9.05038 4.38357C7.73762 5.69632 7.00012 7.4768 7.00012 9.33331C7.00012 14.5821 5.35396 16.282 3.80579 17.8803Z" stroke="#D3B47B" stroke-width="2.33333" stroke-linecap="round" stroke-linejoin="round"/>
</svg>
