<svg width="167" height="23" viewBox="0 0 167 23" fill="none" xmlns="http://www.w3.org/2000/svg">
<g clip-path="url(#clip0_208_864)">
<path d="M22.2222 11.1111C22.2222 4.97461 17.2476 0 11.1111 0C4.97461 0 0 4.97461 0 11.1111C0 16.6569 4.06315 21.2537 9.375 22.0872V14.3229H6.55382V11.1111H9.375V8.6632C9.375 5.87847 11.0339 4.34028 13.5718 4.34028C14.7871 4.34028 16.059 4.55729 16.059 4.55729V7.29167H14.658C13.2778 7.29167 12.8472 8.14822 12.8472 9.02778V11.1111H15.9288L15.4362 14.3229H12.8472V22.0872C18.1591 21.2537 22.2222 16.6569 22.2222 11.1111Z" fill="#6B5A3D"/>
</g>
<g clip-path="url(#clip1_208_864)">
<path d="M55.8798 20.1392C64.2635 20.1392 68.8503 13.1917 68.8503 7.16874C68.8503 6.97343 68.8459 6.77378 68.8373 6.57846C69.7295 5.93319 70.4996 5.13392 71.1111 4.21822C70.2801 4.58795 69.3978 4.82941 68.4944 4.93437C69.4457 4.36416 70.1579 3.46838 70.4992 2.4131C69.6042 2.94346 68.6256 3.31759 67.6051 3.51944C66.9175 2.78883 66.0083 2.30509 65.0183 2.14299C64.0282 1.98089 63.0122 2.14947 62.1276 2.62266C61.2429 3.09585 60.5387 3.8473 60.124 4.76083C59.7092 5.67435 59.6069 6.69907 59.8329 7.67655C58.0209 7.58562 56.2481 7.11489 54.6296 6.29489C53.0112 5.47488 51.5831 4.32391 50.438 2.91657C49.856 3.92002 49.6779 5.10743 49.9399 6.23747C50.2019 7.36752 50.8843 8.3554 51.8486 9.00034C51.1247 8.97736 50.4167 8.78246 49.783 8.43176V8.48819C49.7824 9.54123 50.1464 10.562 50.8133 11.377C51.4801 12.192 52.4087 12.7509 53.441 12.9587C52.7704 13.1421 52.0667 13.1689 51.3841 13.0368C51.6754 13.9424 52.2422 14.7345 53.0054 15.3025C53.7685 15.8705 54.69 16.1861 55.6411 16.2052C54.0263 17.4736 52.0317 18.1616 49.9783 18.1583C49.6142 18.1578 49.2504 18.1355 48.8889 18.0915C50.9749 19.4297 53.4014 20.1405 55.8798 20.1392Z" fill="#6B5A3D"/>
</g>
<path d="M113.05 1.58643H115.861L109.719 8.606L116.944 18.1581H111.287L106.856 12.3648L101.786 18.1581H98.9731L105.542 10.6498L98.6111 1.58643H104.412L108.417 6.8817L113.05 1.58643ZM112.063 16.4754H113.621L103.566 3.1807H101.894L112.063 16.4754Z" fill="#6B5A3D"/>
<g clip-path="url(#clip2_208_864)">
<path d="M165.022 0H146.085C145.178 0 144.444 0.716146 144.444 1.60156V20.6163C144.444 21.5017 145.178 22.2222 146.085 22.2222H165.022C165.929 22.2222 166.667 21.5017 166.667 20.6207V1.60156C166.667 0.716146 165.929 0 165.022 0ZM151.037 18.9366H147.739V8.32899H151.037V18.9366ZM149.388 6.88368C148.329 6.88368 147.474 6.02865 147.474 4.97396C147.474 3.91927 148.329 3.06424 149.388 3.06424C150.443 3.06424 151.298 3.91927 151.298 4.97396C151.298 6.02431 150.443 6.88368 149.388 6.88368ZM163.381 18.9366H160.087V13.7804C160.087 12.5521 160.065 10.9679 158.372 10.9679C156.658 10.9679 156.397 12.309 156.397 13.6936V18.9366H153.108V8.32899H156.267V9.77865H156.311C156.749 8.94531 157.825 8.06424 159.427 8.06424C162.765 8.06424 163.381 10.2604 163.381 13.1163V18.9366Z" fill="#6B5A3D"/>
</g>
<defs>
<clipPath id="clip0_208_864">
<rect width="22.2222" height="22.2222" fill="white"/>
</clipPath>
<clipPath id="clip1_208_864">
<rect width="22.2222" height="22.2222" fill="white" transform="translate(48.8889)"/>
</clipPath>
<clipPath id="clip2_208_864">
<rect width="22.2222" height="22.2222" fill="white" transform="translate(144.444)"/>
</clipPath>
</defs>
</svg>
