<svg width="96" height="96" viewBox="0 0 96 96" fill="none" xmlns="http://www.w3.org/2000/svg">
<path d="M80 51.9998C80 71.9998 66 81.9999 49.36 87.7999C48.4887 88.0951 47.5422 88.081 46.68 87.7598C30 81.9998 16 71.9998 16 51.9998V23.9998C16 22.939 16.4214 21.9216 17.1716 21.1714C17.9217 20.4213 18.9391 19.9998 20 19.9998C28 19.9998 38 15.1998 44.96 9.11984C45.8074 8.39584 46.8854 7.99805 48 7.99805C49.1146 7.99805 50.1926 8.39584 51.04 9.11984C58.04 15.2398 68 19.9998 76 19.9998C77.0609 19.9998 78.0783 20.4213 78.8284 21.1714C79.5786 21.9216 80 22.939 80 23.9998V51.9998Z" stroke="white" stroke-width="8" stroke-linecap="round" stroke-linejoin="round"/>
</svg>
