<svg width="38" height="38" viewBox="0 0 38 38" fill="none" xmlns="http://www.w3.org/2000/svg">
<path d="M24.8509 32.6182V29.5118C24.8509 27.864 24.1963 26.2837 23.0312 25.1185C21.866 23.9533 20.2857 23.2988 18.6379 23.2988H9.31846C7.67067 23.2988 6.09037 23.9533 4.92521 25.1185C3.76005 26.2837 3.10547 27.864 3.10547 29.5118V32.6182" stroke="white" stroke-width="3.10649" stroke-linecap="round" stroke-linejoin="round"/>
<path d="M24.8511 4.85858C26.1834 5.20398 27.3633 5.98199 28.2056 7.0705C29.0479 8.15901 29.5049 9.4964 29.5049 10.8728C29.5049 12.2491 29.0479 13.5865 28.2056 14.675C27.3633 15.7635 26.1834 16.5415 24.8511 16.8869" stroke="white" stroke-width="3.10649" stroke-linecap="round" stroke-linejoin="round"/>
<path d="M34.171 32.6182V29.5117C34.1699 28.1351 33.7118 26.7979 32.8684 25.7099C32.025 24.6219 30.8441 23.8448 29.5112 23.5007" stroke="white" stroke-width="3.10649" stroke-linecap="round" stroke-linejoin="round"/>
<path d="M13.9781 17.0858C17.4095 17.0858 20.1911 14.3041 20.1911 10.8728C20.1911 7.44144 17.4095 4.65979 13.9781 4.65979C10.5468 4.65979 7.76514 7.44144 7.76514 10.8728C7.76514 14.3041 10.5468 17.0858 13.9781 17.0858Z" stroke="white" stroke-width="3.10649" stroke-linecap="round" stroke-linejoin="round"/>
</svg>
