<svg width="38" height="38" viewBox="0 0 38 38" fill="none" xmlns="http://www.w3.org/2000/svg">
<path d="M15.021 6.42427C15.1066 5.52392 15.5247 4.68781 16.1938 4.07931C16.8629 3.4708 17.7348 3.13361 18.6393 3.13361C19.5437 3.13361 20.4156 3.4708 21.0847 4.07931C21.7538 4.68781 22.172 5.52392 22.2576 6.42427C22.309 7.00589 22.4998 7.56656 22.8138 8.05882C23.1278 8.55107 23.5558 8.96043 24.0616 9.25223C24.5673 9.54404 25.1359 9.7097 25.7193 9.73521C26.3026 9.76071 26.8835 9.6453 27.4128 9.39874C28.2346 9.02562 29.1659 8.97163 30.0253 9.24728C30.8848 9.52293 31.6109 10.1085 32.0624 10.89C32.514 11.6715 32.6585 12.5931 32.468 13.4753C32.2775 14.3576 31.7656 15.1374 31.0318 15.663C30.554 15.9982 30.164 16.4437 29.8947 16.9615C29.6255 17.4794 29.4849 18.0545 29.4849 18.6382C29.4849 19.2219 29.6255 19.797 29.8947 20.3149C30.164 20.8328 30.554 21.2782 31.0318 21.6135C31.7656 22.1391 32.2775 22.9189 32.468 23.8011C32.6585 24.6834 32.514 25.6049 32.0624 26.3864C31.6109 27.168 30.8848 27.7535 30.0253 28.0292C29.1659 28.3048 28.2346 28.2508 27.4128 27.8777C26.8835 27.6312 26.3026 27.5157 25.7193 27.5413C25.1359 27.5668 24.5673 27.7324 24.0616 28.0242C23.5558 28.316 23.1278 28.7254 22.8138 29.2176C22.4998 29.7099 22.309 30.2706 22.2576 30.8522C22.172 31.7525 21.7538 32.5886 21.0847 33.1972C20.4156 33.8057 19.5437 34.1429 18.6393 34.1429C17.7348 34.1429 16.8629 33.8057 16.1938 33.1972C15.5247 32.5886 15.1066 31.7525 15.021 30.8522C14.9696 30.2704 14.7788 29.7095 14.4647 29.217C14.1506 28.7246 13.7224 28.3151 13.2165 28.0233C12.7105 27.7315 12.1417 27.5659 11.5581 27.5405C10.9746 27.5152 10.3935 27.6308 9.8642 27.8777C9.04236 28.2508 8.11109 28.3048 7.25163 28.0292C6.39218 27.7535 5.66604 27.168 5.21453 26.3864C4.76301 25.6049 4.61844 24.6834 4.80894 23.8011C4.99944 22.9189 5.51138 22.1391 6.24513 21.6135C6.72294 21.2782 7.11298 20.8328 7.38224 20.3149C7.65151 19.797 7.79209 19.2219 7.79209 18.6382C7.79209 18.0545 7.65151 17.4794 7.38224 16.9615C7.11298 16.4437 6.72294 15.9982 6.24513 15.663C5.51241 15.1371 5.00137 14.3576 4.81133 13.476C4.62129 12.5943 4.76583 11.6735 5.21686 10.8925C5.66788 10.1115 6.39317 9.52607 7.25177 9.25C8.11038 8.97393 9.04095 9.02695 9.86264 9.39874C10.3919 9.6453 10.9728 9.76071 11.5561 9.73521C12.1395 9.7097 12.7081 9.54404 13.2138 9.25223C13.7196 8.96043 14.1476 8.55107 14.4616 8.05882C14.7756 7.56656 14.9664 7.00589 15.0179 6.42427" stroke="white" stroke-width="3.10649" stroke-linecap="round" stroke-linejoin="round"/>
<path d="M18.6387 23.2987C21.2122 23.2987 23.2985 21.2124 23.2985 18.6389C23.2985 16.0654 21.2122 13.9792 18.6387 13.9792C16.0652 13.9792 13.979 16.0654 13.979 18.6389C13.979 21.2124 16.0652 23.2987 18.6387 23.2987Z" stroke="white" stroke-width="3.10649" stroke-linecap="round" stroke-linejoin="round"/>
</svg>
