<svg width="45" height="45" viewBox="0 0 45 45" fill="none" xmlns="http://www.w3.org/2000/svg">
<path d="M16.7813 24.2397C20.9005 24.2397 24.2397 20.9005 24.2397 16.7813C24.2397 12.6622 20.9005 9.323 16.7813 9.323C12.6622 9.323 9.323 12.6622 9.323 16.7813C9.323 20.9005 12.6622 24.2397 16.7813 24.2397Z" stroke="#D3B47B" stroke-width="3.72917" stroke-linecap="round" stroke-linejoin="round"/>
<path d="M29.8334 35.4272C29.8334 29.2479 23.9898 24.2397 16.7813 24.2397C9.57285 24.2397 3.72925 29.2479 3.72925 35.4272M27.9688 24.2397C29.2151 24.2396 30.4415 23.9272 31.5359 23.3311C32.6304 22.735 33.558 21.8741 34.234 20.8272C34.9101 19.7802 35.313 18.5805 35.406 17.3377C35.4989 16.095 35.279 14.8487 34.7663 13.7128C34.2535 12.5769 33.4643 11.5876 32.4708 10.8353C31.4772 10.0829 30.3109 9.59158 29.0786 9.40608C27.8462 9.22058 26.587 9.34685 25.416 9.77336C24.2449 10.1999 23.1995 10.913 22.3751 11.8476" stroke="#D3B47B" stroke-width="3.72917" stroke-linecap="round" stroke-linejoin="round"/>
<path d="M41.0208 35.427C41.0208 29.2478 35.1772 24.2395 27.9687 24.2395C26.464 24.2395 24.0475 23.6932 22.375 21.9368" stroke="#D3B47B" stroke-width="3.72917" stroke-linecap="round" stroke-linejoin="round"/>
</svg>
