<svg width="28" height="28" viewBox="0 0 28 28" fill="none" xmlns="http://www.w3.org/2000/svg">
<path d="M24.99 12.7422C25.1989 12.65 25.3761 12.4987 25.4998 12.3068C25.6234 12.1149 25.6881 11.891 25.6857 11.6627C25.6834 11.4344 25.6141 11.2119 25.4865 11.0226C25.3589 10.8333 25.1786 10.6856 24.9678 10.5978L14.9683 6.04318C14.6644 5.90452 14.3341 5.83276 14 5.83276C13.6659 5.83276 13.3357 5.90452 13.0317 6.04318L3.03334 10.5932C2.82564 10.6841 2.64894 10.8337 2.52487 11.0235C2.40079 11.2133 2.33472 11.4351 2.33472 11.6618C2.33472 11.8886 2.40079 12.1104 2.52487 12.3002C2.64894 12.49 2.82564 12.6395 3.03334 12.7305L13.0317 17.2898C13.3357 17.4285 13.6659 17.5003 14 17.5003C14.3341 17.5003 14.6644 17.4285 14.9683 17.2898L24.99 12.7422Z" stroke="#D3B47B" stroke-width="2.33333" stroke-linecap="round" stroke-linejoin="round"/>
<path d="M25.6667 11.6667V18.6667" stroke="#D3B47B" stroke-width="2.33333" stroke-linecap="round" stroke-linejoin="round"/>
<path d="M7 14.5833V18.6667C7 19.5949 7.7375 20.4852 9.05025 21.1415C10.363 21.7979 12.1435 22.1667 14 22.1667C15.8565 22.1667 17.637 21.7979 18.9497 21.1415C20.2625 20.4852 21 19.5949 21 18.6667V14.5833" stroke="#D3B47B" stroke-width="2.33333" stroke-linecap="round" stroke-linejoin="round"/>
</svg>
