<svg width="28" height="28" viewBox="0 0 28 28" fill="none" xmlns="http://www.w3.org/2000/svg">
<path d="M11.6667 14H16.3334" stroke="#0C2E4B" stroke-width="2.33333" stroke-linecap="round" stroke-linejoin="round"/>
<path d="M11.6667 9.33333H16.3334" stroke="#0C2E4B" stroke-width="2.33333" stroke-linecap="round" stroke-linejoin="round"/>
<path d="M16.3334 24.5V21C16.3334 20.3812 16.0876 19.7877 15.65 19.3501C15.2124 18.9125 14.6189 18.6667 14.0001 18.6667C13.3812 18.6667 12.7878 18.9125 12.3502 19.3501C11.9126 19.7877 11.6667 20.3812 11.6667 21V24.5" stroke="#0C2E4B" stroke-width="2.33333" stroke-linecap="round" stroke-linejoin="round"/>
<path d="M6.99992 11.6667H4.66659C4.04775 11.6667 3.45425 11.9125 3.01667 12.3501C2.57908 12.7877 2.33325 13.3812 2.33325 14V22.1667C2.33325 22.7855 2.57908 23.379 3.01667 23.8166C3.45425 24.2542 4.04775 24.5 4.66659 24.5H23.3333C23.9521 24.5 24.5456 24.2542 24.9832 23.8166C25.4208 23.379 25.6666 22.7855 25.6666 22.1667V10.5C25.6666 9.88116 25.4208 9.28767 24.9832 8.85008C24.5456 8.4125 23.9521 8.16667 23.3333 8.16667H20.9999" stroke="#0C2E4B" stroke-width="2.33333" stroke-linecap="round" stroke-linejoin="round"/>
<path d="M7 24.5V5.83333C7 5.21449 7.24583 4.621 7.68342 4.18342C8.121 3.74583 8.71449 3.5 9.33333 3.5H18.6667C19.2855 3.5 19.879 3.74583 20.3166 4.18342C20.7542 4.621 21 5.21449 21 5.83333V24.5" stroke="#0C2E4B" stroke-width="2.33333" stroke-linecap="round" stroke-linejoin="round"/>
</svg>
