<svg width="28" height="28" viewBox="0 0 28 28" fill="none" xmlns="http://www.w3.org/2000/svg">
<path d="M2.33325 11.0834C2.33328 9.78511 2.72711 8.51739 3.46274 7.44765C4.19837 6.37791 5.24119 5.55648 6.45346 5.09185C7.66574 4.62721 8.99044 4.54123 10.2526 4.84526C11.5148 5.1493 12.655 5.82904 13.5228 6.79471C13.5839 6.86006 13.6578 6.91216 13.7398 6.94778C13.8219 6.9834 13.9104 7.00178 13.9999 7.00178C14.0894 7.00178 14.1779 6.9834 14.26 6.94778C14.3421 6.91216 14.416 6.86006 14.4771 6.79471C15.3421 5.82276 16.4826 5.13731 17.7468 4.82958C19.011 4.52185 20.339 4.60645 21.5539 5.07211C22.7689 5.53777 23.8132 6.36241 24.5479 7.43627C25.2826 8.51012 25.6728 9.78227 25.6666 11.0834C25.6666 13.755 23.9166 15.75 22.1666 17.5L15.7593 23.6985C15.5419 23.9482 15.2738 24.1488 14.973 24.2869C14.6721 24.425 14.3453 24.4975 14.0143 24.4996C13.6832 24.5017 13.3555 24.4334 13.0529 24.2991C12.7503 24.1648 12.4798 23.9676 12.2593 23.7207L5.83325 17.5C4.08325 15.75 2.33325 13.7667 2.33325 11.0834Z" stroke="#14B8A6" stroke-width="2.33333" stroke-linecap="round" stroke-linejoin="round"/>
</svg>
