<svg width="54" height="54" viewBox="0 0 54 54" fill="none" xmlns="http://www.w3.org/2000/svg">
<path d="M29.25 18V9C29.25 8.3625 29.466 7.8285 29.898 7.398C30.33 6.9675 30.864 6.7515 31.5 6.75H45C45.6375 6.75 46.1722 6.966 46.6042 7.398C47.0362 7.83 47.2515 8.364 47.25 9V18C47.25 18.6375 47.034 19.1723 46.602 19.6043C46.17 20.0363 45.636 20.2515 45 20.25H31.5C30.8625 20.25 30.3285 20.034 29.898 19.602C29.4675 19.17 29.2515 18.636 29.25 18ZM6.75 27V9C6.75 8.3625 6.966 7.8285 7.398 7.398C7.83 6.9675 8.364 6.7515 9 6.75H22.5C23.1375 6.75 23.6723 6.966 24.1042 7.398C24.5363 7.83 24.7515 8.364 24.75 9V27C24.75 27.6375 24.534 28.1723 24.102 28.6042C23.67 29.0363 23.136 29.2515 22.5 29.25H9C8.3625 29.25 7.8285 29.034 7.398 28.602C6.9675 28.17 6.7515 27.636 6.75 27ZM29.25 45V27C29.25 26.3625 29.466 25.8285 29.898 25.398C30.33 24.9675 30.864 24.7515 31.5 24.75H45C45.6375 24.75 46.1722 24.966 46.6042 25.398C47.0362 25.83 47.2515 26.364 47.25 27V45C47.25 45.6375 47.034 46.1722 46.602 46.6042C46.17 47.0362 45.636 47.2515 45 47.25H31.5C30.8625 47.25 30.3285 47.034 29.898 46.602C29.4675 46.17 29.2515 45.636 29.25 45ZM6.75 45V36C6.75 35.3625 6.966 34.8285 7.398 34.398C7.83 33.9675 8.364 33.7515 9 33.75H22.5C23.1375 33.75 23.6723 33.966 24.1042 34.398C24.5363 34.83 24.7515 35.364 24.75 36V45C24.75 45.6375 24.534 46.1722 24.102 46.6042C23.67 47.0362 23.136 47.2515 22.5 47.25H9C8.3625 47.25 7.8285 47.034 7.398 46.602C6.9675 46.17 6.7515 45.636 6.75 45ZM11.25 24.75H20.25V11.25H11.25V24.75ZM33.75 42.75H42.75V29.25H33.75V42.75ZM33.75 15.75H42.75V11.25H33.75V15.75ZM11.25 42.75H20.25V38.25H11.25V42.75Z" fill="white"/>
</svg>
