<svg width="54" height="54" viewBox="0 0 54 54" fill="none" xmlns="http://www.w3.org/2000/svg">
<path d="M27 31.5V36C23.4196 36 19.9858 37.4223 17.4541 39.9541C14.9223 42.4858 13.5 45.9196 13.5 49.5H9C9 44.7261 10.8964 40.1477 14.2721 36.7721C17.6477 33.3964 22.2261 31.5 27 31.5ZM27 29.25C19.5413 29.25 13.5 23.2087 13.5 15.75C13.5 8.29125 19.5413 2.25 27 2.25C34.4587 2.25 40.5 8.29125 40.5 15.75C40.5 23.2087 34.4587 29.25 27 29.25ZM27 24.75C31.9725 24.75 36 20.7225 36 15.75C36 10.7775 31.9725 6.75 27 6.75C22.0275 6.75 18 10.7775 18 15.75C18 20.7225 22.0275 24.75 27 24.75ZM47.25 38.25H49.5V49.5H31.5V38.25H33.75V36C33.75 34.2098 34.4612 32.4929 35.727 31.227C36.9929 29.9612 38.7098 29.25 40.5 29.25C42.2902 29.25 44.0071 29.9612 45.273 31.227C46.5388 32.4929 47.25 34.2098 47.25 36V38.25ZM42.75 38.25V36C42.75 35.4033 42.5129 34.831 42.091 34.409C41.669 33.9871 41.0967 33.75 40.5 33.75C39.9033 33.75 39.331 33.9871 38.909 34.409C38.4871 34.831 38.25 35.4033 38.25 36V38.25H42.75Z" fill="white"/>
</svg>
