<svg width="54" height="54" viewBox="0 0 54 54" fill="none" xmlns="http://www.w3.org/2000/svg">
<g clip-path="url(#clip0_628_24)">
<path fill-rule="evenodd" clip-rule="evenodd" d="M22.3521 9.95139C22.3521 8.13853 22.8535 7.06239 23.4783 6.44139C24.1032 5.81268 25.1755 5.31125 26.9922 5.31125C28.8051 5.31125 29.8851 5.81268 30.5061 6.43753C31.1271 7.06239 31.6323 8.13468 31.6323 9.94753C31.6323 11.7604 31.1309 12.8327 30.5061 13.4575C29.8812 14.0824 28.8089 14.5838 26.9922 14.5838C25.1793 14.5838 24.0993 14.0824 23.4783 13.4575C22.8573 12.8327 22.3521 11.7642 22.3521 9.95139ZM26.9922 0.485962C24.2922 0.485962 21.8429 1.25353 20.0686 3.02396C18.2943 4.79825 17.5306 7.24368 17.5306 9.94368C17.5306 12.6437 18.2943 15.093 20.0686 16.8634C21.8429 18.6338 24.2922 19.4014 26.9922 19.4014C29.6922 19.4014 32.1415 18.6377 33.9158 16.8634C35.6901 15.093 36.4538 12.6437 36.4538 9.94368C36.4538 7.24368 35.6901 4.79825 33.9158 3.02782C32.1415 1.25739 29.6922 0.489819 26.9922 0.489819M26.9999 26.163C25.0173 24.3694 22.5526 22.5527 19.8951 21.5421C18.2172 20.9057 16.3851 20.5624 14.5105 20.8092C12.6089 21.0638 10.7922 21.9124 9.15677 23.463C6.36419 26.1128 5.67377 29.4647 6.27934 32.7857C6.86948 36.0141 8.67462 39.2541 10.9079 42.1084C13.1542 44.9507 15.7752 47.4757 18.6993 49.6144C21.4071 51.5815 24.2768 53.0858 26.6836 53.4831C26.893 53.5179 27.1068 53.5179 27.3162 53.4831C29.7269 53.0858 32.5966 51.5777 35.3005 49.6144C38.0545 47.6125 40.8432 44.9858 43.0919 42.1084C45.3291 39.2541 47.1303 36.0141 47.7205 32.7857C48.3299 29.4647 47.6395 26.1128 44.8431 23.463C43.2115 21.9124 41.3909 21.0638 39.4893 20.8092C37.6148 20.5624 35.7865 20.9057 34.1086 21.5421C31.4472 22.5527 28.9863 24.3694 26.9999 26.163Z" fill="#D3B47B"/>
</g>
<defs>
<clipPath id="clip0_628_24">
<rect width="54" height="54" fill="white"/>
</clipPath>
</defs>
</svg>
