<svg width="54" height="54" viewBox="0 0 54 54" fill="none" xmlns="http://www.w3.org/2000/svg">
<path d="M22.2367 4.96579C23.307 4.83967 24.3853 5.12238 25.256 5.75736C26.1267 6.39234 26.7255 7.33272 26.9325 8.3903L26.9887 8.76604L27 9.00004V24.75C27.0001 25.3011 27.2024 25.8331 27.5686 26.2449C27.9348 26.6567 28.4394 26.9198 28.9867 26.9843L29.25 27H44.55C45.7435 27 46.8881 27.4742 47.732 28.3181C48.5759 29.162 49.05 30.3066 49.05 31.5C49.0499 31.6712 49.0303 31.8418 48.9915 32.0085C48.091 35.8935 46.1742 39.4694 43.4373 42.3699C40.7004 45.2705 37.2417 47.3915 33.4155 48.5157C29.5893 49.64 25.533 49.7271 21.662 48.7681C17.7911 47.8092 14.2446 45.8386 11.3857 43.0582C8.52675 40.2778 6.45819 36.7875 5.39182 32.9448C4.32544 29.102 4.29958 25.0449 5.31686 21.1888C6.33414 17.3328 8.35802 13.8164 11.1812 10.9998C14.0045 8.18319 17.5256 6.16755 21.384 5.15929L21.9915 5.00855L22.2367 4.96579Z" fill="#D3B47B"/>
<path d="M31.5 7.87504V20.25C31.5 20.8468 31.7371 21.4191 32.159 21.841C32.581 22.263 33.1533 22.5 33.75 22.5H46.125C46.4846 22.4999 46.839 22.4136 47.1584 22.2484C47.4778 22.0831 47.7529 21.8436 47.9608 21.5501C48.1686 21.2566 48.303 20.9175 48.3527 20.5614C48.4025 20.2052 48.3661 19.8423 48.2468 19.503C47.1293 16.329 45.3141 13.4461 42.9349 11.0665C40.5557 8.68693 37.6731 6.87129 34.4993 5.75329C34.1599 5.63345 33.7967 5.59675 33.4402 5.6463C33.0838 5.69585 32.7444 5.83019 32.4506 6.03804C32.1568 6.24589 31.9171 6.52119 31.7517 6.84084C31.5863 7.16048 31.5 7.51514 31.5 7.87504Z" fill="#D3B47B"/>
</svg>
