<svg width="54" height="54" viewBox="0 0 54 54" fill="none" xmlns="http://www.w3.org/2000/svg">
<path d="M34.6833 16.5365C34.0321 16.5369 33.4011 16.763 32.8979 17.1764C32.3947 17.5898 32.0504 18.1649 31.9237 18.8037C31.797 19.4425 31.8956 20.1055 32.2029 20.6796C32.5102 21.2538 33.007 21.7037 33.6088 21.9527C34.2106 22.2016 34.8801 22.2342 35.5032 22.0448C36.1263 21.8555 36.6645 21.456 37.0261 20.9144C37.3876 20.3727 37.5502 19.7225 37.4861 19.0744C37.422 18.4263 37.1352 17.8205 36.6745 17.3602C36.4133 17.0984 36.1029 16.8909 35.7612 16.7496C35.4194 16.6082 35.0531 16.5358 34.6833 16.5365Z" fill="#D3B47B"/>
<path d="M50.3549 5.27977C50.3545 5.27663 50.3545 5.27343 50.3549 5.27028C50.2658 4.87932 50.0691 4.52107 49.7871 4.23594C49.5052 3.95081 49.1491 3.75015 48.7592 3.65661C45.6162 2.88985 40.6719 3.70723 35.1928 5.90098C29.6704 8.11583 24.4961 11.3854 20.9988 14.889C19.8779 16.0041 18.8364 17.1964 17.8822 18.457C15.5271 18.3516 13.4525 18.687 11.7049 19.4495C5.6151 22.1295 3.87592 28.9881 3.41291 31.8041C3.34592 32.2042 3.37215 32.6144 3.48957 33.0027C3.607 33.3911 3.81244 33.7471 4.08993 34.043C4.36741 34.339 4.70944 34.5669 5.0894 34.7091C5.46936 34.8512 5.87701 34.9038 6.28061 34.8627H6.29432L13.0781 34.1223C13.0865 34.2088 13.096 34.2879 13.1034 34.3607C13.1905 35.1873 13.5592 35.9589 14.1475 36.546L17.4582 39.8588C18.0444 40.4479 18.8158 40.8171 19.6424 40.904L19.8692 40.9282L19.1309 47.7035V47.7172C19.0932 48.0821 19.132 48.4509 19.2449 48.7999C19.3578 49.149 19.5423 49.4706 19.7866 49.7443C20.0309 50.018 20.3296 50.2376 20.6636 50.3893C20.9977 50.541 21.3597 50.6212 21.7265 50.625C21.8731 50.6252 22.0196 50.6133 22.1642 50.5891C24.996 50.1335 31.8515 48.4154 34.5241 42.293C35.2803 40.557 35.6146 38.4908 35.5208 36.1399C36.7871 35.1878 37.9837 34.1462 39.1014 33.0233C42.6273 29.5154 45.9073 24.3833 48.099 18.9411C50.2811 13.5243 51.1027 8.54297 50.3549 5.27977ZM39.0635 23.7241C38.1969 24.5917 37.0924 25.1826 35.8899 25.4223C34.6873 25.662 33.4407 25.5396 32.3077 25.0707C31.1747 24.6017 30.2063 23.8073 29.5249 22.7878C28.8435 21.7684 28.4798 20.5697 28.4798 19.3435C28.4798 18.1173 28.8435 16.9186 29.5249 15.8992C30.2063 14.8797 31.1747 14.0853 32.3077 13.6163C33.4407 13.1474 34.6873 13.025 35.8899 13.2647C37.0924 13.5044 38.1969 14.0953 39.0635 14.9629C39.6443 15.535 40.1056 16.2169 40.4204 16.969C40.7353 17.721 40.8974 18.5282 40.8974 19.3435C40.8974 20.1588 40.7353 20.966 40.4204 21.718C40.1056 22.4701 39.6443 23.152 39.0635 23.7241Z" fill="#D3B47B"/>
<path d="M17.0786 40.7573C16.6705 40.7067 16.2579 40.8068 15.9185 41.0389C15.2445 41.4998 14.5674 41.9554 13.884 42.3995C12.5013 43.2981 10.8475 41.7202 11.6691 40.2901L12.9506 38.0752C13.1338 37.8072 13.2358 37.4921 13.2444 37.1676C13.253 36.843 13.1678 36.5229 12.999 36.2456C12.8302 35.9683 12.585 35.7456 12.2929 35.6041C12.0007 35.4626 11.6739 35.4084 11.3517 35.448C9.92942 35.6279 8.60741 36.2757 7.59382 37.2895C7.2078 37.6766 6.03393 38.8515 5.40218 43.3286C5.22236 44.6146 5.10901 45.9091 5.06257 47.2067C5.05679 47.4319 5.09618 47.656 5.17839 47.8658C5.26061 48.0756 5.38399 48.2667 5.54127 48.428C5.69855 48.5893 5.88653 48.7175 6.09414 48.805C6.30175 48.8925 6.52477 48.9375 6.75007 48.9375H6.79225C8.09093 48.8915 9.38638 48.7788 10.6735 48.6C15.1528 47.9672 16.3277 46.7922 16.7137 46.4062C17.7321 45.3921 18.3784 44.064 18.5478 42.6368C18.602 42.1927 18.4777 41.7454 18.2022 41.3929C17.9267 41.0405 17.5226 40.8119 17.0786 40.7573Z" fill="#D3B47B"/>
</svg>
