<svg width="54" height="54" viewBox="0 0 54 54" fill="none" xmlns="http://www.w3.org/2000/svg">
<path d="M49.5 49.5H4.5" stroke="#D3B47B" stroke-width="3.375" stroke-linecap="round"/>
<path d="M47.25 49.5V32.625C47.25 31.7299 46.8944 30.8714 46.2615 30.2385C45.6285 29.6056 44.7701 29.25 43.875 29.25H37.125C36.2299 29.25 35.3714 29.6056 34.7385 30.2385C34.1056 30.8714 33.75 31.7299 33.75 32.625V49.5V11.25C33.75 8.0685 33.75 6.47775 32.76 5.49C31.7745 4.5 30.1837 4.5 27 4.5C23.8163 4.5 22.2277 4.5 21.24 5.49C20.25 6.4755 20.25 8.06625 20.25 11.25V49.5V21.375C20.25 20.4799 19.8944 19.6214 19.2615 18.9885C18.6286 18.3556 17.7701 18 16.875 18H10.125C9.22989 18 8.37145 18.3556 7.73851 18.9885C7.10558 19.6214 6.75 20.4799 6.75 21.375V49.5" stroke="#D3B47B" stroke-width="5.38"/>
</svg>
