<svg width="54" height="54" viewBox="0 0 54 54" fill="none" xmlns="http://www.w3.org/2000/svg">
<path d="M44.0259 9.9314L31.7476 22.2074M31.7476 22.2074C30.4757 20.9474 28.7553 20.2443 26.9649 20.2527C25.1746 20.2611 23.4609 20.9805 22.2009 22.2524C20.9409 23.5243 20.2377 25.2447 20.2462 27.0351C20.2503 27.9216 20.4291 28.7986 20.7722 29.616C21.1153 30.4334 21.6161 31.1753 22.2459 31.7991C23.5178 33.0592 25.2382 33.7623 27.0286 33.7538C28.8189 33.7454 30.5326 33.0261 31.7926 31.7541C33.0526 30.4822 33.7558 28.7618 33.7473 26.9715C33.7389 25.1811 33.0196 23.4674 31.7476 22.2074Z" stroke="#D3B47B" stroke-width="5.5" stroke-linecap="square"/>
<path d="M15.75 46.4895C12.329 44.5144 9.48827 41.6734 7.51345 38.2522C5.53862 34.8311 4.49931 30.9503 4.5 27C4.5 14.5733 14.5733 4.50001 27 4.50001C29.3963 4.49775 31.7775 4.87829 34.0538 5.62726M38.2568 46.4873C41.6762 44.5115 44.5153 41.6705 46.4889 38.2498C48.4625 34.8291 49.501 30.9492 49.5 27C49.5025 24.603 49.122 22.2209 48.3728 19.944" stroke="#D3B47B" stroke-width="5.5" stroke-linecap="square"/>
</svg>
