<svg width="54" height="54" viewBox="0 0 54 54" fill="none" xmlns="http://www.w3.org/2000/svg">
<path fill-rule="evenodd" clip-rule="evenodd" d="M27 18.5625C24.7622 18.5625 22.6161 19.4514 21.0338 21.0338C19.4514 22.6161 18.5625 24.7622 18.5625 27C18.5625 29.2378 19.4514 31.3839 21.0338 32.9662C22.6161 34.5486 24.7622 35.4375 27 35.4375C29.2378 35.4375 31.3839 34.5486 32.9662 32.9662C34.5486 31.3839 35.4375 29.2378 35.4375 27C35.4375 24.7622 34.5486 22.6161 32.9662 21.0338C31.3839 19.4514 29.2378 18.5625 27 18.5625ZM21.9375 27C21.9375 25.6573 22.4709 24.3697 23.4203 23.4203C24.3697 22.4709 25.6573 21.9375 27 21.9375C28.3427 21.9375 29.6303 22.4709 30.5797 23.4203C31.5291 24.3697 32.0625 25.6573 32.0625 27C32.0625 28.3427 31.5291 29.6303 30.5797 30.5797C29.6303 31.5291 28.3427 32.0625 27 32.0625C25.6573 32.0625 24.3697 31.5291 23.4203 30.5797C22.4709 29.6303 21.9375 28.3427 21.9375 27Z" fill="white"/>
<path fill-rule="evenodd" clip-rule="evenodd" d="M27 7.3125C16.8435 7.3125 10.0013 13.3965 6.03 18.5557L5.96025 18.648C5.06025 19.8158 4.2345 20.889 3.67425 22.158C3.0735 23.5192 2.8125 25.002 2.8125 27C2.8125 28.998 3.0735 30.4808 3.67425 31.842C4.23675 33.111 5.0625 34.1865 5.96025 35.352L6.03225 35.4443C10.0013 40.6035 16.8435 46.6875 27 46.6875C37.1565 46.6875 43.9987 40.6035 47.97 35.4443L48.0397 35.352C48.9398 34.1865 49.7655 33.111 50.3258 31.842C50.9265 30.4808 51.1875 28.998 51.1875 27C51.1875 25.002 50.9265 23.5192 50.3258 22.158C49.7633 20.889 48.9375 19.8158 48.0397 18.648L47.9678 18.5557C43.9987 13.3965 37.1565 7.3125 27 7.3125ZM8.7075 20.6145C12.3705 15.8512 18.3375 10.6875 27 10.6875C35.6625 10.6875 41.6272 15.8512 45.2925 20.6145C46.2825 21.897 46.8585 22.662 47.2388 23.5215C47.5943 24.327 47.8125 25.3102 47.8125 27C47.8125 28.6898 47.5943 29.673 47.2388 30.4785C46.8585 31.338 46.2803 32.103 45.2948 33.3855C41.625 38.1488 35.6625 43.3125 27 43.3125C18.3375 43.3125 12.3727 38.1488 8.7075 33.3855C7.7175 32.103 7.1415 31.338 6.76125 30.4785C6.40575 29.673 6.1875 28.6898 6.1875 27C6.1875 25.3102 6.40575 24.327 6.76125 23.5215C7.1415 22.662 7.722 21.897 8.7075 20.6145Z" fill="white"/>
</svg>
