<svg width="54" height="54" viewBox="0 0 54 54" fill="none" xmlns="http://www.w3.org/2000/svg">
<path d="M27 4.5C27.8445 4.5 28.677 4.54575 29.4975 4.63725C29.7912 4.66975 30.0756 4.75978 30.3345 4.90221C30.5934 5.04463 30.8218 5.23665 31.0065 5.46731C31.1912 5.69798 31.3286 5.96276 31.411 6.24654C31.4933 6.53032 31.519 6.82755 31.4865 7.12125C31.454 7.41495 31.364 7.69937 31.2215 7.95828C31.0791 8.21719 30.8871 8.44551 30.6564 8.6302C30.4258 8.8149 30.161 8.95235 29.8772 9.03472C29.5934 9.11709 29.2962 9.14275 29.0025 9.11025C25.2946 8.69545 21.5494 9.44311 18.285 11.2498C15.0206 13.0565 12.3983 15.833 10.7808 19.1952C9.1633 22.5574 8.63056 26.3391 9.25626 30.0173C9.88196 33.6955 11.6352 37.0883 14.2734 39.7266C16.9116 42.3648 20.3045 44.118 23.9827 44.7437C27.6609 45.3694 31.4426 44.8367 34.8048 43.2192C38.167 41.6017 40.9435 38.9794 42.7502 35.715C44.5569 32.4506 45.3046 28.7054 44.8898 24.9975C44.8573 24.7038 44.8829 24.4066 44.9653 24.1228C45.0476 23.839 45.1851 23.5742 45.3698 23.3436C45.7428 22.8777 46.2856 22.5791 46.8787 22.5135C47.4719 22.4479 48.0668 22.6205 48.5327 22.9935C48.7633 23.1782 48.9554 23.4066 49.0978 23.6655C49.2402 23.9244 49.3302 24.2088 49.3627 24.5025C49.4527 25.323 49.4985 26.1555 49.5 27C49.5 39.4268 39.4268 49.5 27 49.5C14.5733 49.5 4.5 39.4268 4.5 27C4.5 14.5733 14.5733 4.5 27 4.5ZM26.928 17.7232C27.0763 18.3009 26.9892 18.9137 26.6858 19.4272C26.3825 19.9406 25.8877 20.3127 25.3102 20.4615C23.7237 20.8771 22.3426 21.8558 21.4246 23.2148C20.5066 24.5739 20.1144 26.2206 20.3213 27.8476C20.5282 29.4745 21.32 30.9707 22.5489 32.0567C23.7778 33.1428 25.3599 33.7447 27 33.75C28.4969 33.7506 29.9516 33.2536 31.1352 32.3372C32.3189 31.4208 33.1643 30.1369 33.5385 28.6875C33.698 28.1213 34.0729 27.6401 34.5828 27.3469C35.0928 27.0537 35.6973 26.9719 36.2669 27.119C36.8364 27.2661 37.3257 27.6304 37.6299 28.1339C37.9342 28.6373 38.0291 29.2399 37.8945 29.8125C37.2043 32.4583 35.5744 34.7624 33.3093 36.2942C31.0443 37.8261 28.2991 38.4809 25.5865 38.1364C22.8739 37.7919 20.3795 36.4716 18.5693 34.4221C16.7591 32.3727 15.7569 29.7344 15.75 27C15.7496 24.5056 16.5782 22.0819 18.1056 20.1098C19.6329 18.1377 21.7723 16.7291 24.1875 16.1055C24.4737 16.0317 24.7716 16.0151 25.0642 16.0565C25.3568 16.0979 25.6384 16.1965 25.8929 16.3467C26.1473 16.4969 26.3697 16.6958 26.5474 16.932C26.725 17.1682 26.8543 17.4371 26.928 17.7232ZM41.634 4.78575C42.0447 4.95603 42.3957 5.24416 42.6428 5.61377C42.8899 5.98338 43.0219 6.41791 43.0223 6.8625V10.98H47.1375C47.5824 10.9801 48.0174 11.1121 48.3873 11.3593C48.7572 11.6066 49.0455 11.958 49.2158 12.369C49.386 12.7801 49.4306 13.2324 49.3438 13.6688C49.257 14.1052 49.0428 14.5061 48.7282 14.8207L40.77 22.77C40.3481 23.192 39.7759 23.4291 39.1792 23.4293H33.75L29.637 27.5445C29.2148 27.9667 28.6422 28.2039 28.0451 28.2039C27.4481 28.2039 26.8754 27.9667 26.4533 27.5445C26.0311 27.1223 25.7939 26.5497 25.7939 25.9526C25.7939 25.3556 26.0311 24.7829 26.4533 24.3607L30.5685 20.25V14.8185C30.5686 14.2218 30.8058 13.6496 31.2277 13.2278L39.1815 5.27175C39.4962 4.9569 39.8971 4.74246 40.3337 4.65555C40.7702 4.56863 41.2228 4.61316 41.634 4.7835M38.5223 12.2917L35.0685 15.75V18.9315H38.25L41.706 15.4778H40.7723C40.1755 15.4778 39.6032 15.2407 39.1813 14.8187C38.7593 14.3968 38.5223 13.8245 38.5223 13.2278V12.2917Z" fill="#D3B47B"/>
</svg>
