<svg width="34" height="34" viewBox="0 0 34 34" fill="none" xmlns="http://www.w3.org/2000/svg">
<path d="M12.514 18.0759C15.5857 18.0759 18.0758 15.5858 18.0758 12.5141C18.0758 9.44237 15.5857 6.95227 12.514 6.95227C9.44234 6.95227 6.95224 9.44237 6.95224 12.5141C6.95224 15.5858 9.44234 18.0759 12.514 18.0759Z" stroke="#0C2E4B" stroke-width="2.7809" stroke-linecap="round" stroke-linejoin="round"/>
<path d="M22.2472 26.4186C22.2472 21.8106 17.8895 18.0759 12.514 18.0759C7.13855 18.0759 2.78088 21.8106 2.78088 26.4186M20.8567 18.0759C21.7861 18.0758 22.7006 17.8429 23.5168 17.3984C24.3329 16.9538 25.0246 16.3119 25.5288 15.5311C26.0329 14.7504 26.3334 13.8558 26.4027 12.929C26.4721 12.0022 26.308 11.0729 25.9257 10.2258C25.5433 9.37875 24.9548 8.64101 24.2139 8.07999C23.473 7.51897 22.6033 7.15256 21.6843 7.01423C20.7653 6.8759 19.8262 6.97006 18.953 7.28812C18.0798 7.60617 17.3001 8.13797 16.6854 8.83494" stroke="#0C2E4B" stroke-width="2.7809" stroke-linecap="round" stroke-linejoin="round"/>
<path d="M30.5899 26.4185C30.5899 21.8106 26.2322 18.0758 20.8567 18.0758C19.7346 18.0758 17.9326 17.6684 16.6854 16.3586" stroke="#0C2E4B" stroke-width="2.7809" stroke-linecap="round" stroke-linejoin="round"/>
</svg>
