<svg width="34" height="34" viewBox="0 0 34 34" fill="none" xmlns="http://www.w3.org/2000/svg">
<path d="M8.33993 2.78088C10.1138 2.7804 11.8542 3.26471 13.3728 4.18148C14.8914 5.09826 16.1307 6.41263 16.9565 7.98256C17.7909 6.80356 18.896 5.84206 20.1791 5.17887C21.4622 4.51567 22.8858 4.17014 24.3301 4.17133H29.1967V7.64746C29.1967 10.0445 28.2445 12.3433 26.5495 14.0382C24.8546 15.7332 22.5558 16.6854 20.1588 16.6854H18.0731V18.0758H25.0253V27.809C25.0253 28.5465 24.7323 29.2538 24.2108 29.7754C23.6893 30.2969 22.982 30.5899 22.2444 30.5899H11.1208C10.3833 30.5899 9.67596 30.2969 9.15444 29.7754C8.63292 29.2538 8.33993 28.5465 8.33993 27.809V18.0758H15.2922V15.2949H12.5113C9.92989 15.2949 7.45423 14.2695 5.62891 12.4442C3.80359 10.6188 2.77814 8.14317 2.77814 5.56178V2.78088H8.33993ZM22.2444 20.8567H11.1208V27.809H22.2444V20.8567ZM26.4158 6.95223H24.3301C22.6706 6.95223 21.0791 7.61145 19.9057 8.78487C18.7323 9.95829 18.0731 11.5498 18.0731 13.2093V13.9045H20.1588C20.9804 13.9045 21.7941 13.7426 22.5532 13.4282C23.3124 13.1137 24.0021 12.6529 24.5831 12.0718C25.1642 11.4908 25.625 10.8011 25.9395 10.0419C26.2539 9.28278 26.4158 8.46914 26.4158 7.64746V6.95223ZM8.33993 5.56178H5.55904C5.55904 7.40563 6.2915 9.17396 7.5953 10.4778C8.8991 11.7816 10.6674 12.514 12.5113 12.514H15.2922C15.2922 10.6702 14.5597 8.90185 13.2559 7.59805C11.9521 6.29425 10.1838 5.56178 8.33993 5.56178Z" fill="#0C2E4B"/>
</svg>
