<svg width="34" height="34" viewBox="0 0 34 34" fill="none" xmlns="http://www.w3.org/2000/svg">
<path d="M12.6628 7.57515C13.4943 5.14187 16.8564 5.06817 17.8423 7.35407L17.9257 7.57654L19.0478 10.858C19.3049 11.6106 19.7205 12.2992 20.2664 12.8775C20.8123 13.4558 21.4759 13.9103 22.2124 14.2104L22.5142 14.323L25.7956 15.4437C28.2289 16.2752 28.3026 19.6373 26.0181 20.6231L25.7956 20.7066L22.5142 21.8287C21.7614 22.0856 21.0724 22.5011 20.4939 23.047C19.9153 23.593 19.4606 24.2567 19.1604 24.9933L19.0478 25.2936L17.9271 28.5765C17.0956 31.0098 13.7335 31.0835 12.749 28.799L12.6628 28.5765L11.5421 25.295C11.2851 24.5422 10.8697 23.8533 10.3237 23.2747C9.7778 22.6962 9.11412 22.2415 8.37747 21.9413L8.07713 21.8287L4.79567 20.7079C2.36099 19.8765 2.2873 16.5144 4.5732 15.5299L4.79567 15.4437L8.07713 14.323C8.82969 14.0659 9.51835 13.6503 10.0967 13.1044C10.675 12.5584 11.1295 11.8948 11.4295 11.1583L11.5421 10.858L12.6628 7.57515ZM15.295 8.47338L14.1743 11.7548C13.7827 12.9024 13.1457 13.9508 12.3076 14.827C11.4696 15.7033 10.4506 16.3863 9.32158 16.8286L8.97397 16.9551L5.69251 18.0758L8.97397 19.1965C10.1215 19.5881 11.1699 20.2251 12.0462 21.0632C12.9224 21.9012 13.6055 22.9202 14.0477 24.0492L14.1743 24.3968L15.295 27.6783L16.4157 24.3968C16.8072 23.2493 17.4442 22.2009 18.2823 21.3246C19.1204 20.4484 20.1394 19.7653 21.2683 19.3231L21.6159 19.1979L24.8974 18.0758L21.6159 16.9551C20.4684 16.5636 19.42 15.9266 18.5437 15.0885C17.6675 14.2504 16.9845 13.2314 16.5422 12.1025L16.417 11.7548L15.295 8.47338ZM26.4185 2.78088C26.6787 2.78088 26.9336 2.85385 27.1543 2.9915C27.375 3.12914 27.5527 3.32594 27.6672 3.55954L27.7339 3.72222L28.2206 5.14882L29.6486 5.63548C29.9092 5.72404 30.1378 5.888 30.3052 6.10658C30.4726 6.32516 30.5713 6.58852 30.5889 6.86327C30.6065 7.13803 30.5421 7.41182 30.4039 7.64994C30.2657 7.88807 30.0599 8.0798 29.8126 8.20086L29.6486 8.2676L28.222 8.75425L27.7353 10.1822C27.6466 10.4429 27.4825 10.6713 27.2638 10.8385C27.0452 11.0058 26.7818 11.1044 26.507 11.1218C26.2323 11.1392 25.9586 11.0747 25.7205 10.9364C25.4825 10.7981 25.2909 10.5922 25.1699 10.3449L25.1032 10.1822L24.6165 8.75564L23.1885 8.26899C22.9279 8.18042 22.6993 8.01646 22.5319 7.79788C22.3645 7.5793 22.2658 7.31595 22.2482 7.04119C22.2306 6.76644 22.295 6.49265 22.4332 6.25452C22.5714 6.0164 22.7772 5.82466 23.0245 5.70361L23.1885 5.63687L24.6151 5.15021L25.1018 3.72222C25.1956 3.4475 25.3729 3.20902 25.6091 3.0402C25.8452 2.87139 26.1283 2.78071 26.4185 2.78088Z" fill="#0C2E4B"/>
</svg>
