<svg width="39" height="39" viewBox="0 0 39 39" fill="none" xmlns="http://www.w3.org/2000/svg">
<path d="M31.6368 25.0204L27.1244 24.5052C26.5939 24.4429 26.056 24.5016 25.5514 24.677C25.0468 24.8524 24.5885 25.1398 24.2109 25.5178L20.9422 28.7866C15.8993 26.2212 11.8003 22.1222 9.23492 17.0793L12.5215 13.7928C13.2854 13.0289 13.6584 11.963 13.5341 10.8793L13.0189 6.40249C12.9186 5.53571 12.5028 4.73616 11.8508 4.15626C11.1988 3.57635 10.3562 3.25664 9.48364 3.25806H6.41026C4.4028 3.25806 2.73288 4.92799 2.85723 6.93545C3.79879 22.1069 15.9324 34.2227 31.0861 35.1643C33.0935 35.2886 34.7634 33.6187 34.7634 31.6112V28.5379C34.7812 26.7436 33.4311 25.2336 31.6368 25.0204Z" fill="#D3B47B"/>
</svg>
