<svg width="39" height="39" viewBox="0 0 39 39" fill="none" xmlns="http://www.w3.org/2000/svg">
<path d="M19.1411 35.0921C16.9346 35.0921 14.861 34.6731 12.9203 33.8351C10.9796 32.9972 9.29142 31.8609 7.85584 30.4264C6.42025 28.9919 5.28401 27.3038 4.44712 25.362C3.61023 23.4202 3.19125 21.3466 3.19019 19.1411C3.18912 16.9356 3.6081 14.862 4.44712 12.9203C5.28614 10.9785 6.42238 9.29036 7.85584 7.85584C9.2893 6.42131 10.9774 5.28508 12.9203 4.44712C14.8631 3.60916 16.9367 3.19019 19.1411 3.19019C21.3455 3.19019 23.4192 3.60916 25.362 4.44712C27.3048 5.28508 28.993 6.42131 30.4264 7.85584C31.8599 9.29036 32.9966 10.9785 33.8367 12.9203C34.6768 14.862 35.0953 16.9356 35.0921 19.1411C35.0889 21.3466 34.6699 23.4202 33.8351 25.362C33.0004 27.3038 31.8641 28.9919 30.4264 30.4264C28.9887 31.8609 27.3006 32.9977 25.362 33.8367C23.4234 34.6757 21.3498 35.0942 19.1411 35.0921ZM19.1411 31.9019C22.7035 31.9019 25.7209 30.6657 28.1933 28.1933C30.6657 25.7209 31.9019 22.7035 31.9019 19.1411C31.9019 15.5787 30.6657 12.5614 28.1933 10.089C25.7209 7.61657 22.7035 6.38037 19.1411 6.38037C15.5788 6.38037 12.5614 7.61657 10.089 10.089C7.61657 12.5614 6.38038 15.5787 6.38038 19.1411C6.38038 22.7035 7.61657 25.7209 10.089 28.1933C12.5614 30.6657 15.5788 31.9019 19.1411 31.9019ZM19.1411 28.7117C16.4826 28.7117 14.2229 27.7812 12.362 25.9203C10.501 24.0593 9.57056 21.7996 9.57056 19.1411C9.57056 16.4826 10.501 14.2229 12.362 12.362C14.2229 10.501 16.4826 9.57056 19.1411 9.57056C21.7996 9.57056 24.0593 10.501 25.9203 12.362C27.7812 14.2229 28.7117 16.4826 28.7117 19.1411C28.7117 21.7996 27.7812 24.0593 25.9203 25.9203C24.0593 27.7812 21.7996 28.7117 19.1411 28.7117ZM19.1411 25.5215C20.8957 25.5215 22.3978 24.8968 23.6473 23.6473C24.8968 22.3978 25.5215 20.8957 25.5215 19.1411C25.5215 17.3865 24.8968 15.8845 23.6473 14.635C22.3978 13.3855 20.8957 12.7607 19.1411 12.7607C17.3865 12.7607 15.8845 13.3855 14.635 14.635C13.3855 15.8845 12.7608 17.3865 12.7608 19.1411C12.7608 20.8957 13.3855 22.3978 14.635 23.6473C15.8845 24.8968 17.3865 25.5215 19.1411 25.5215ZM19.1411 22.3313C18.2638 22.3313 17.5131 22.0192 16.8889 21.395C16.2646 20.7708 15.952 20.0195 15.9509 19.1411C15.9499 18.2628 16.2625 17.512 16.8889 16.8889C17.5152 16.2657 18.266 15.9531 19.1411 15.9509C20.0163 15.9488 20.7676 16.2614 21.395 16.8889C22.0224 17.5163 22.3345 18.267 22.3313 19.1411C22.3281 20.0152 22.016 20.7665 21.395 21.395C20.774 22.0235 20.0227 22.3356 19.1411 22.3313Z" fill="#14B8A6"/>
</svg>
