<svg width="33" height="33" viewBox="0 0 33 33" fill="none" xmlns="http://www.w3.org/2000/svg">
<g clip-path="url(#clip0_101_1651)">
<path d="M3.05444 3.56347V27.4899H31.0534C31.4585 27.4899 31.8469 27.6508 32.1333 27.9372C32.4197 28.2236 32.5806 28.6121 32.5806 29.0171C32.5806 29.4221 32.4197 29.8106 32.1333 30.097C31.8469 30.3834 31.4585 30.5443 31.0534 30.5443H1.52722C1.12217 30.5443 0.733721 30.3834 0.447312 30.097C0.160903 29.8106 0 29.4221 0 29.0171L0 3.56347C0 3.15843 0.160903 2.76998 0.447312 2.48357C0.733721 2.19716 1.12217 2.03625 1.52722 2.03625C1.93226 2.03625 2.32071 2.19716 2.60712 2.48357C2.89353 2.76998 3.05444 3.15843 3.05444 3.56347ZM32.1327 8.71529L21.4421 19.4058C21.1558 19.6918 20.7676 19.8524 20.3629 19.8524C19.9582 19.8524 19.57 19.6918 19.2837 19.4058L14.254 14.3762L8.71532 19.9149C8.42587 20.185 8.04285 20.3321 7.64701 20.3253C7.25117 20.3184 6.87346 20.1582 6.59351 19.8782C6.31357 19.5983 6.15329 19.2206 6.14645 18.8247C6.13961 18.4289 6.28676 18.0459 6.55685 17.7564L13.1748 11.1385C13.4612 10.8525 13.8493 10.6918 14.254 10.6918C14.6587 10.6918 15.0469 10.8525 15.3333 11.1385L20.3629 16.1681L29.9742 6.55682C30.2636 6.28672 30.6467 6.13958 31.0425 6.14642C31.4383 6.15325 31.8161 6.31354 32.096 6.59347C32.3759 6.87342 32.5362 7.25113 32.5431 7.64697C32.5499 8.04281 32.4028 8.42584 32.1327 8.71529Z" fill="#6B5A3D"/>
</g>
<defs>
<clipPath id="clip0_101_1651">
<rect width="32.5806" height="32.5806" fill="white"/>
</clipPath>
</defs>
</svg>
