<svg width="39" height="39" viewBox="0 0 39 39" fill="none" xmlns="http://www.w3.org/2000/svg">
<g clip-path="url(#clip0_101_1648)">
<path fill-rule="evenodd" clip-rule="evenodd" d="M3.36055 7.79822H26.0465C26.5093 7.79822 26.9531 7.98207 27.2804 8.30934C27.6077 8.6366 27.7915 9.08047 27.7915 9.54329V28.7391C27.7915 29.2019 27.6077 29.6457 27.2804 29.973C26.9531 30.3003 26.5093 30.4841 26.0465 30.4841H3.36055C2.89773 30.4841 2.45386 30.3003 2.1266 29.973C1.79933 29.6457 1.61548 29.2019 1.61548 28.7391V9.54329C1.61548 9.08047 1.79933 8.6366 2.1266 8.30934C2.45386 7.98207 2.89773 7.79822 3.36055 7.79822ZM29.5366 15.651L35.4262 10.9393C35.6828 10.7339 35.9921 10.6051 36.3187 10.5678C36.6453 10.5305 36.9757 10.5861 37.272 10.7284C37.5683 10.8706 37.8184 11.0936 37.9936 11.3717C38.1687 11.6499 38.2617 11.9718 38.2619 12.3005V25.9818C38.2617 26.3105 38.1687 26.6325 37.9936 26.9106C37.8184 27.1887 37.5683 27.4117 37.272 27.554C36.9757 27.6962 36.6453 27.7519 36.3187 27.7145C35.9921 27.6772 35.6828 27.5484 35.4262 27.343L29.5366 22.6313V15.651Z" fill="#0C2E4B"/>
</g>
<defs>
<clipPath id="clip0_101_1648">
<rect width="38.2823" height="38.2823" fill="white"/>
</clipPath>
</defs>
</svg>
