<svg width="12" height="12" viewBox="0 0 12 12" fill="none" xmlns="http://www.w3.org/2000/svg">
<g clip-path="url(#clip0_212_1295)">
<path d="M1.03076 6.17369C0.989094 6.06143 0.989094 5.93795 1.03076 5.82569C1.43661 4.84162 2.12552 4.00021 3.01015 3.40814C3.89478 2.81607 4.93529 2.5 5.99976 2.5C7.06424 2.5 8.10475 2.81607 8.98938 3.40814C9.87401 4.00021 10.5629 4.84162 10.9688 5.82569C11.0104 5.93795 11.0104 6.06143 10.9688 6.17369C10.5629 7.15776 9.87401 7.99917 8.98938 8.59124C8.10475 9.18331 7.06424 9.49938 5.99976 9.49938C4.93529 9.49938 3.89478 9.18331 3.01015 8.59124C2.12552 7.99917 1.43661 7.15776 1.03076 6.17369Z" stroke="#6A7282" stroke-linecap="round" stroke-linejoin="round"/>
<path d="M6 7.5C6.82843 7.5 7.5 6.82843 7.5 6C7.5 5.17157 6.82843 4.5 6 4.5C5.17157 4.5 4.5 5.17157 4.5 6C4.5 6.82843 5.17157 7.5 6 7.5Z" stroke="#6A7282" stroke-linecap="round" stroke-linejoin="round"/>
</g>
<defs>
<clipPath id="clip0_212_1295">
<rect width="12" height="12" fill="white"/>
</clipPath>
</defs>
</svg>
