<svg width="167" height="23" viewBox="0 0 167 23" fill="none" xmlns="http://www.w3.org/2000/svg">
<g clip-path="url(#clip0_212_1353)">
<path d="M22.2222 11.1111C22.2222 4.97461 17.2476 0 11.1111 0C4.97461 0 0 4.97461 0 11.1111C0 16.6569 4.06315 21.2537 9.375 22.0872V14.3229H6.55382V11.1111H9.375V8.6632C9.375 5.87847 11.0339 4.34028 13.5718 4.34028C14.7871 4.34028 16.059 4.55729 16.059 4.55729V7.29167H14.658C13.2778 7.29167 12.8472 8.14822 12.8472 9.02778V11.1111H15.9288L15.4362 14.3229H12.8472V22.0872C18.1591 21.2537 22.2222 16.6569 22.2222 11.1111Z" fill="#6B5A3D"/>
</g>
<g clip-path="url(#clip1_212_1353)">
<path d="M55.8796 20.1392C64.2632 20.1392 68.85 13.1917 68.85 7.16874C68.85 6.97343 68.8457 6.77378 68.837 6.57846C69.7293 5.93319 70.4993 5.13392 71.1109 4.21822C70.2799 4.58795 69.3976 4.82941 68.4941 4.93437C69.4454 4.36416 70.1577 3.46838 70.4989 2.4131C69.604 2.94346 68.6253 3.31759 67.6048 3.51944C66.9172 2.78883 66.0081 2.30509 65.018 2.14299C64.0279 1.98089 63.012 2.14947 62.1273 2.62266C61.2426 3.09585 60.5385 3.8473 60.1237 4.76083C59.7089 5.67435 59.6067 6.69907 59.8327 7.67655C58.0206 7.58562 56.2479 7.11489 54.6294 6.29489C53.0109 5.47488 51.5828 4.32391 50.4377 2.91657C49.8557 3.92002 49.6776 5.10743 49.9396 6.23747C50.2016 7.36752 50.8841 8.3554 51.8483 9.00034C51.1244 8.97736 50.4164 8.78246 49.7828 8.43176V8.48819C49.7821 9.54123 50.1462 10.562 50.813 11.377C51.4799 12.192 52.4084 12.7509 53.4408 12.9587C52.7702 13.1421 52.0664 13.1689 51.3839 13.0368C51.6752 13.9424 52.242 14.7345 53.0051 15.3025C53.7683 15.8705 54.6897 16.1861 55.6408 16.2052C54.0261 17.4736 52.0314 18.1616 49.9781 18.1583C49.6139 18.1578 49.2502 18.1355 48.8887 18.0915C50.9746 19.4297 53.4012 20.1405 55.8796 20.1392Z" fill="#6B5A3D"/>
</g>
<path d="M113.05 1.58643H115.861L109.719 8.606L116.945 18.1581H111.287L106.856 12.3648L101.786 18.1581H98.9734L105.543 10.6498L98.6113 1.58643H104.412L108.417 6.8817L113.05 1.58643ZM112.063 16.4754H113.621L103.566 3.1807H101.894L112.063 16.4754Z" fill="#6B5A3D"/>
<g clip-path="url(#clip2_212_1353)">
<path d="M165.022 0H146.085C145.178 0 144.444 0.716146 144.444 1.60156V20.6163C144.444 21.5017 145.178 22.2222 146.085 22.2222H165.022C165.929 22.2222 166.667 21.5017 166.667 20.6207V1.60156C166.667 0.716146 165.929 0 165.022 0ZM151.037 18.9366H147.739V8.32899H151.037V18.9366ZM149.388 6.88368C148.329 6.88368 147.474 6.02865 147.474 4.97396C147.474 3.91927 148.329 3.06424 149.388 3.06424C150.443 3.06424 151.298 3.91927 151.298 4.97396C151.298 6.02431 150.443 6.88368 149.388 6.88368ZM163.381 18.9366H160.087V13.7804C160.087 12.5521 160.065 10.9679 158.372 10.9679C156.658 10.9679 156.397 12.309 156.397 13.6936V18.9366H153.108V8.32899H156.267V9.77865H156.311C156.749 8.94531 157.825 8.06424 159.427 8.06424C162.765 8.06424 163.381 10.2604 163.381 13.1163V18.9366Z" fill="#6B5A3D"/>
</g>
<defs>
<clipPath id="clip0_212_1353">
<rect width="22.2222" height="22.2222" fill="white"/>
</clipPath>
<clipPath id="clip1_212_1353">
<rect width="22.2222" height="22.2222" fill="white" transform="translate(48.8887)"/>
</clipPath>
<clipPath id="clip2_212_1353">
<rect width="22.2222" height="22.2222" fill="white" transform="translate(144.444)"/>
</clipPath>
</defs>
</svg>
