<svg width="40" height="40" viewBox="0 0 40 40" fill="none" xmlns="http://www.w3.org/2000/svg">
<path d="M8.3335 8.33334C8.33332 7.74683 8.4879 7.17066 8.78164 6.66299C9.07537 6.15533 9.49785 5.73416 10.0064 5.442C10.515 5.14985 11.0916 4.99705 11.6781 4.99904C12.2647 5.00103 12.8403 5.15774 13.3468 5.45334L33.3418 17.1167C33.8464 17.4095 34.2654 17.8296 34.5567 18.335C34.8481 18.8405 35.0017 19.4135 35.0022 19.9969C35.0027 20.5803 34.8501 21.1536 34.5596 21.6596C34.2691 22.1655 33.8509 22.5863 33.3468 22.88L13.3468 34.5467C12.8403 34.8423 12.2647 34.999 11.6781 35.001C11.0916 35.003 10.515 34.8502 10.0064 34.558C9.49785 34.2659 9.07537 33.8447 8.78164 33.337C8.4879 32.8294 8.33332 32.2532 8.3335 31.6667V8.33334Z" stroke="#6B5A3D" stroke-width="3.33333" stroke-linecap="round" stroke-linejoin="round"/>
</svg>
