<svg width="34" height="34" viewBox="0 0 34 34" fill="none" xmlns="http://www.w3.org/2000/svg">
<path d="M16.6854 23.6375C17.0793 23.6375 17.4098 23.504 17.6768 23.2371C17.9437 22.9701 18.0768 22.6401 18.0758 22.2471V16.6853C18.0758 16.2913 17.9423 15.9613 17.6754 15.6953C17.4084 15.4292 17.0784 15.2957 16.6854 15.2948C16.2923 15.2939 15.9623 15.4274 15.6954 15.6953C15.4284 15.9631 15.2949 16.2931 15.2949 16.6853V22.2471C15.2949 22.641 15.4284 22.9715 15.6954 23.2384C15.9623 23.5054 16.2923 23.6384 16.6854 23.6375ZM16.6854 12.5139C17.0793 12.5139 17.4098 12.3804 17.6768 12.1135C17.9437 11.8465 18.0768 11.5165 18.0758 11.1235C18.0749 10.7304 17.9414 10.4004 17.6754 10.1335C17.4093 9.86649 17.0793 9.73301 16.6854 9.73301C16.2914 9.73301 15.9614 9.86649 15.6954 10.1335C15.4293 10.4004 15.2959 10.7304 15.2949 11.1235C15.294 11.5165 15.4275 11.847 15.6954 12.1148C15.9633 12.3827 16.2933 12.5158 16.6854 12.5139ZM16.6854 30.5898C14.7619 30.5898 12.9543 30.2245 11.2626 29.4941C9.57091 28.7636 8.09935 27.7732 6.84795 26.5227C5.59655 25.2722 4.60608 23.8006 3.87656 22.108C3.14704 20.4154 2.78181 18.6078 2.78089 16.6853C2.77996 14.7627 3.14518 12.9551 3.87656 11.2625C4.60794 9.56986 5.5984 8.0983 6.84795 6.84783C8.0975 5.59735 9.56906 4.60689 11.2626 3.87644C12.9562 3.14599 14.7638 2.78076 16.6854 2.78076C18.607 2.78076 20.4146 3.14599 22.1081 3.87644C23.8017 4.60689 25.2733 5.59735 26.5228 6.84783C27.7724 8.0983 28.7633 9.56986 29.4956 11.2625C30.2279 12.9551 30.5927 14.7627 30.5899 16.6853C30.5871 18.6078 30.2219 20.4154 29.4942 22.108C28.7665 23.8006 27.7761 25.2722 26.5228 26.5227C25.2696 27.7732 23.798 28.7641 22.1081 29.4955C20.4183 30.2268 18.6107 30.5916 16.6854 30.5898ZM16.6854 27.8089C19.7907 27.8089 22.421 26.7313 24.5762 24.5761C26.7314 22.4209 27.809 19.7906 27.809 16.6853C27.809 13.5799 26.7314 10.9497 24.5762 8.79446C22.421 6.63926 19.7907 5.56166 16.6854 5.56166C13.58 5.56166 10.9498 6.63926 8.79458 8.79446C6.63938 10.9497 5.56178 13.5799 5.56178 16.6853C5.56178 19.7906 6.63938 22.4209 8.79458 24.5761C10.9498 26.7313 13.58 27.8089 16.6854 27.8089Z" fill="#0C2E4B"/>
</svg>
