<svg width="34" height="34" viewBox="0 0 34 34" fill="none" xmlns="http://www.w3.org/2000/svg">
<path d="M31.8065 7.3001V15.6428C31.8065 16.0577 31.6417 16.4555 31.3483 16.7489C31.055 17.0422 30.6571 17.207 30.2422 17.207C29.8274 17.207 29.4295 17.0422 29.1361 16.7489C28.8428 16.4555 28.678 16.0577 28.678 15.6428V11.0804L18.8349 20.9248C18.6896 21.0706 18.5169 21.1863 18.3267 21.2653C18.1366 21.3442 17.9327 21.3848 17.7269 21.3848C17.521 21.3848 17.3171 21.3442 17.127 21.2653C16.9369 21.1863 16.7642 21.0706 16.6189 20.9248L12.514 16.816L4.23516 25.0922C3.9413 25.3861 3.54274 25.5512 3.12715 25.5512C2.71156 25.5512 2.313 25.3861 2.01914 25.0922C1.72527 24.7983 1.56018 24.3998 1.56018 23.9842C1.56018 23.5686 1.72527 23.17 2.01914 22.8762L11.4047 13.4906C11.55 13.3448 11.7227 13.2291 11.9128 13.1501C12.103 13.0712 12.3068 13.0306 12.5127 13.0306C12.7186 13.0306 12.9224 13.0712 13.1126 13.1501C13.3027 13.2291 13.4754 13.3448 13.6207 13.4906L17.7282 17.5981L26.4619 8.86435H21.8995C21.4847 8.86435 21.0868 8.69955 20.7934 8.40619C20.5001 8.11284 20.3353 7.71496 20.3353 7.3001C20.3353 6.88523 20.5001 6.48735 20.7934 6.194C21.0868 5.90064 21.4847 5.73584 21.8995 5.73584H30.2422C30.6571 5.73584 31.055 5.90064 31.3483 6.194C31.6417 6.48735 31.8065 6.88523 31.8065 7.3001Z" fill="#0C2E4B"/>
</svg>
