<svg width="34" height="34" viewBox="0 0 34 34" fill="none" xmlns="http://www.w3.org/2000/svg">
<path d="M15.2949 5.56152V13.9042C15.2949 15.4407 12.4932 16.6851 9.03791 16.6851C5.58264 16.6851 2.78088 15.4407 2.78088 13.9042V5.56152" stroke="#0C2E4B" stroke-width="2.7809" stroke-linecap="round" stroke-linejoin="round"/>
<path d="M15.2949 9.73301C15.2949 11.2695 12.4932 12.5139 9.03791 12.5139C5.58264 12.5139 2.78088 11.2695 2.78088 9.73301M22.2472 4.17121H26.4185C27.1561 4.17121 27.8634 4.4642 28.3849 4.98572C28.9064 5.50724 29.1994 6.21457 29.1994 6.95211V11.1235M11.1236 29.1993H6.95223C6.21469 29.1993 5.50736 28.9063 4.98584 28.3848C4.46432 27.8633 4.17133 27.1559 4.17133 26.4184V22.2471M15.2949 5.56166C15.2949 7.09811 12.4932 8.34256 9.03791 8.34256C5.58264 8.34256 2.78088 7.09811 2.78088 5.56166C2.78088 4.02521 5.58264 2.78076 9.03791 2.78076C12.4932 2.78076 15.2949 4.02521 15.2949 5.56166Z" stroke="#0C2E4B" stroke-width="2.7809" stroke-linecap="round" stroke-linejoin="round"/>
<path d="M24.3328 23.6373C26.2526 23.6373 27.8089 22.081 27.8089 20.1612C27.8089 18.2414 26.2526 16.6851 24.3328 16.6851C22.413 16.6851 20.8567 18.2414 20.8567 20.1612C20.8567 22.081 22.413 23.6373 24.3328 23.6373Z" stroke="#0C2E4B" stroke-width="2.7809" stroke-linecap="round" stroke-linejoin="round"/>
<path d="M30.5899 30.5895H18.0758C18.0758 29.7679 18.2376 28.9542 18.5521 28.1951C18.8665 27.4359 19.3274 26.7462 19.9084 26.1652C20.4895 25.5841 21.1792 25.1233 21.9384 24.8088C22.6975 24.4944 23.5111 24.3325 24.3328 24.3325C25.1545 24.3325 25.9682 24.4944 26.7273 24.8088C27.4864 25.1233 28.1762 25.5841 28.7572 26.1652C29.3382 26.7462 29.7991 27.4359 30.1136 28.1951C30.428 28.9542 30.5899 29.7679 30.5899 30.5895Z" stroke="#0C2E4B" stroke-width="2.7809" stroke-linecap="round" stroke-linejoin="round"/>
</svg>
