<svg width="33" height="33" viewBox="0 0 33 33" fill="none" xmlns="http://www.w3.org/2000/svg">
<path d="M13.8707 22.0922L8.125 16.3451L10.0398 14.4303L13.8707 18.2599L21.5299 10.5994L23.446 12.5155L13.8707 22.0922Z" fill="#D3B47B"/>
<path fill-rule="evenodd" clip-rule="evenodd" d="M1.35413 16.2501C1.35413 8.02352 8.0234 1.35425 16.25 1.35425C24.4765 1.35425 31.1458 8.02352 31.1458 16.2501C31.1458 24.4766 24.4765 31.1459 16.25 31.1459C8.0234 31.1459 1.35413 24.4766 1.35413 16.2501ZM16.25 28.4376C14.6495 28.4376 13.0647 28.1223 11.586 27.5099C10.1073 26.8974 8.76381 25.9997 7.63209 24.8679C6.50038 23.7362 5.60266 22.3927 4.99018 20.914C4.3777 19.4354 4.06246 17.8506 4.06246 16.2501C4.06246 14.6496 4.3777 13.0648 4.99018 11.5861C5.60266 10.1075 6.50038 8.76393 7.63209 7.63222C8.76381 6.5005 10.1073 5.60278 11.586 4.9903C13.0647 4.37782 14.6495 4.06258 16.25 4.06258C19.4823 4.06258 22.5822 5.34662 24.8678 7.63222C27.1534 9.91782 28.4375 13.0178 28.4375 16.2501C28.4375 19.4824 27.1534 22.5823 24.8678 24.8679C22.5822 27.1535 19.4823 28.4376 16.25 28.4376Z" fill="#D3B47B"/>
</svg>
