<svg width="167" height="23" viewBox="0 0 167 23" fill="none" xmlns="http://www.w3.org/2000/svg">
<g clip-path="url(#clip0_101_1675)">
<path d="M22.2222 11.1111C22.2222 4.97461 17.2476 0 11.1111 0C4.97461 0 0 4.97461 0 11.1111C0 16.6569 4.06315 21.2537 9.375 22.0872V14.3229H6.55382V11.1111H9.375V8.6632C9.375 5.87847 11.0339 4.34028 13.5718 4.34028C14.7871 4.34028 16.059 4.55729 16.059 4.55729V7.29167H14.658C13.2778 7.29167 12.8472 8.14822 12.8472 9.02778V11.1111H15.9288L15.4362 14.3229H12.8472V22.0872C18.1591 21.2537 22.2222 16.6569 22.2222 11.1111Z" fill="#6B5A3D"/>
</g>
<g clip-path="url(#clip1_101_1675)">
<path d="M55.8798 20.139C64.2635 20.139 68.8503 13.1915 68.8503 7.1685C68.8503 6.97319 68.8459 6.77353 68.8373 6.57822C69.7295 5.93294 70.4996 5.13368 71.1111 4.21798C70.2801 4.5877 69.3978 4.82917 68.4944 4.93412C69.4457 4.36391 70.1579 3.46814 70.4992 2.41286C69.6042 2.94322 68.6256 3.31734 67.6051 3.51919C66.9175 2.78859 66.0083 2.30485 65.0183 2.14275C64.0282 1.98065 63.0122 2.14923 62.1276 2.62242C61.2429 3.09561 60.5387 3.84706 60.124 4.76058C59.7092 5.67411 59.6069 6.69883 59.8329 7.67631C58.0209 7.58538 56.2481 7.11465 54.6296 6.29464C53.0112 5.47464 51.5831 4.32366 50.438 2.91633C49.856 3.91978 49.6779 5.10719 49.9399 6.23723C50.2019 7.36727 50.8843 8.35515 51.8486 9.0001C51.1247 8.97711 50.4167 8.78222 49.783 8.43152V8.48794C49.7824 9.54099 50.1464 10.5618 50.8133 11.3767C51.4801 12.1917 52.4087 12.7506 53.441 12.9584C52.7704 13.1419 52.0667 13.1686 51.3841 13.0366C51.6754 13.9422 52.2422 14.7343 53.0054 15.3023C53.7685 15.8703 54.69 16.1858 55.6411 16.205C54.0263 17.4734 52.0317 18.1613 49.9783 18.1581C49.6142 18.1575 49.2504 18.1352 48.8889 18.0912C50.9749 19.4295 53.4014 20.1403 55.8798 20.139Z" fill="#6B5A3D"/>
</g>
<path d="M113.05 1.58667H115.861L109.719 8.60625L116.944 18.1583H111.287L106.856 12.365L101.786 18.1583H98.9731L105.542 10.6501L98.6111 1.58667H104.412L108.417 6.88195L113.05 1.58667ZM112.063 16.4757H113.621L103.566 3.18095H101.894L112.063 16.4757Z" fill="#6B5A3D"/>
<g clip-path="url(#clip2_101_1675)">
<path d="M165.022 0H146.085C145.178 0 144.444 0.716146 144.444 1.60156V20.6163C144.444 21.5017 145.178 22.2222 146.085 22.2222H165.022C165.929 22.2222 166.667 21.5017 166.667 20.6207V1.60156C166.667 0.716146 165.929 0 165.022 0ZM151.037 18.9366H147.739V8.32899H151.037V18.9366ZM149.388 6.88368C148.329 6.88368 147.474 6.02865 147.474 4.97396C147.474 3.91927 148.329 3.06424 149.388 3.06424C150.443 3.06424 151.298 3.91927 151.298 4.97396C151.298 6.02431 150.443 6.88368 149.388 6.88368ZM163.381 18.9366H160.087V13.7804C160.087 12.5521 160.065 10.9679 158.372 10.9679C156.658 10.9679 156.398 12.309 156.398 13.6936V18.9366H153.108V8.32899H156.267V9.77865H156.311C156.749 8.94531 157.826 8.06424 159.427 8.06424C162.765 8.06424 163.381 10.2604 163.381 13.1163V18.9366Z" fill="#6B5A3D"/>
</g>
<defs>
<clipPath id="clip0_101_1675">
<rect width="22.2222" height="22.2222" fill="white"/>
</clipPath>
<clipPath id="clip1_101_1675">
<rect width="22.2222" height="22.2222" fill="white" transform="translate(48.8889)"/>
</clipPath>
<clipPath id="clip2_101_1675">
<rect width="22.2222" height="22.2222" fill="white" transform="translate(144.444)"/>
</clipPath>
</defs>
</svg>
