<svg width="25" height="25" viewBox="0 0 25 25" fill="none" xmlns="http://www.w3.org/2000/svg">
<path fill-rule="evenodd" clip-rule="evenodd" d="M2.75 0C2.02065 0 1.32118 0.289731 0.805456 0.805456C0.289731 1.32118 0 2.02065 0 2.75V22C0 22.7293 0.289731 23.4288 0.805456 23.9445C1.32118 24.4603 2.02065 24.75 2.75 24.75H22C22.7293 24.75 23.4288 24.4603 23.9445 23.9445C24.4603 23.4288 24.75 22.7293 24.75 22V2.75C24.75 2.02065 24.4603 1.32118 23.9445 0.805456C23.4288 0.289731 22.7293 0 22 0H2.75ZM19.1813 9.3445C19.4393 9.08668 19.5843 8.73692 19.5844 8.37217C19.5845 8.00743 19.4398 7.65757 19.1819 7.39956C18.9241 7.14156 18.5744 6.99654 18.2096 6.99641C17.8449 6.99628 17.495 7.14105 17.237 7.39887L10.4308 14.2051L7.51438 11.2887C7.38671 11.161 7.23514 11.0596 7.06831 10.9905C6.90148 10.9213 6.72265 10.8857 6.54205 10.8856C6.1773 10.8855 5.82744 11.0302 5.56944 11.2881C5.31143 11.5459 5.16641 11.8956 5.16628 12.2604C5.16616 12.6251 5.31093 12.975 5.56875 13.233L9.361 17.0252C9.50146 17.1658 9.66823 17.2772 9.85178 17.3533C10.0353 17.4294 10.2321 17.4685 10.4308 17.4685C10.6294 17.4685 10.8262 17.4294 11.0097 17.3533C11.1933 17.2772 11.36 17.1658 11.5005 17.0252L19.1813 9.3445Z" fill="#D3B47B"/>
</svg>
