<svg width="48" height="19" viewBox="0 0 48 19" fill="none" xmlns="http://www.w3.org/2000/svg">
<g clip-path="url(#clip0_101_1391)">
<path d="M5.93398 17.0945C13.0502 17.0945 16.9436 11.1974 16.9436 6.08493C16.9436 5.91915 16.9399 5.74968 16.9325 5.58389C17.6899 5.03617 18.3435 4.35774 18.8626 3.58048C18.1573 3.8943 17.4083 4.09926 16.6415 4.18835C17.4489 3.70435 18.0535 2.944 18.3432 2.04825C17.5835 2.49844 16.7528 2.816 15.8866 2.98733C15.303 2.36719 14.5313 1.95657 13.6909 1.81898C12.8505 1.68139 11.9881 1.82448 11.2372 2.22614C10.4863 2.62779 9.88857 3.26563 9.5365 4.04105C9.18444 4.81647 9.09762 5.68627 9.28947 6.51597C7.75134 6.43879 6.24661 6.03923 4.87282 5.34319C3.49903 4.64715 2.28684 3.67018 1.31484 2.47561C0.820824 3.32736 0.669653 4.33525 0.892055 5.29446C1.11446 6.25366 1.69374 7.09219 2.51218 7.63963C1.89775 7.62012 1.29677 7.45469 0.758911 7.15701V7.2049C0.758361 8.09875 1.06737 8.9652 1.63342 9.65697C2.19946 10.3487 2.98761 10.8232 3.86388 10.9995C3.2947 11.1553 2.69733 11.178 2.11798 11.0658C2.36525 11.8346 2.84634 12.5069 3.49411 12.989C4.14188 13.4712 4.92401 13.739 5.73135 13.7552C4.36073 14.8319 2.66761 15.4159 0.924696 15.4131C0.615604 15.4126 0.306816 15.3937 -1.52588e-05 15.3564C1.7706 16.4923 3.8303 17.0956 5.93398 17.0945Z" fill="#787878"/>
</g>
<g clip-path="url(#clip1_101_1391)">
<path d="M46.5148 0H30.441C29.671 0 29.0484 0.607878 29.0484 1.35944V17.4995C29.0484 18.2511 29.671 18.8626 30.441 18.8626H46.5148C47.2847 18.8626 47.911 18.2511 47.911 17.5032V1.35944C47.911 0.607878 47.2847 0 46.5148 0ZM34.6446 16.0738H31.8446V7.06981H34.6446V16.0738ZM33.2446 5.843C32.3457 5.843 31.6199 5.11723 31.6199 4.22199C31.6199 3.32675 32.3457 2.60098 33.2446 2.60098C34.1398 2.60098 34.8656 3.32675 34.8656 4.22199C34.8656 5.11354 34.1398 5.843 33.2446 5.843ZM45.1222 16.0738H42.3259V11.697C42.3259 10.6544 42.3075 9.30974 40.8707 9.30974C39.4155 9.30974 39.1944 10.4481 39.1944 11.6234V16.0738H36.4019V7.06981H39.0839V8.3003H39.1208C39.4929 7.59295 40.4065 6.84508 41.7659 6.84508C44.599 6.84508 45.1222 8.70924 45.1222 11.1334V16.0738Z" fill="#787878"/>
</g>
<defs>
<clipPath id="clip0_101_1391">
<rect width="18.8626" height="18.8626" fill="white"/>
</clipPath>
<clipPath id="clip1_101_1391">
<rect width="18.8626" height="18.8626" fill="white" transform="translate(29.0484)"/>
</clipPath>
</defs>
</svg>
