<svg width="32" height="32" viewBox="0 0 32 32" fill="none" xmlns="http://www.w3.org/2000/svg">
<path d="M2.74936 16.4637C2.63824 16.1644 2.63824 15.8351 2.74936 15.5357C3.83162 12.9116 5.66871 10.6678 8.02772 9.08895C10.3867 7.51009 13.1614 6.66724 16 6.66724C18.8386 6.66724 21.6133 7.51009 23.9723 9.08895C26.3313 10.6678 28.1684 12.9116 29.2507 15.5357C29.3618 15.8351 29.3618 16.1644 29.2507 16.4637C28.1684 19.0879 26.3313 21.3317 23.9723 22.9106C21.6133 24.4894 18.8386 25.3323 16 25.3323C13.1614 25.3323 10.3867 24.4894 8.02772 22.9106C5.66871 21.3317 3.83162 19.0879 2.74936 16.4637Z" stroke="#D3B47B" stroke-width="2.66667" stroke-linecap="round" stroke-linejoin="round"/>
<path d="M16 20C18.2091 20 20 18.2091 20 16C20 13.7909 18.2091 12 16 12C13.7909 12 12 13.7909 12 16C12 18.2091 13.7909 20 16 20Z" stroke="#D3B47B" stroke-width="2.66667" stroke-linecap="round" stroke-linejoin="round"/>
</svg>
