<svg width="20" height="20" viewBox="0 0 20 20" fill="none" xmlns="http://www.w3.org/2000/svg">
<path d="M13.3335 10.8331L17.686 13.7348C17.7487 13.7766 17.8216 13.8005 17.8969 13.8041C17.9722 13.8077 18.0471 13.7908 18.1135 13.7553C18.1799 13.7197 18.2355 13.6668 18.2742 13.6021C18.313 13.5375 18.3335 13.4635 18.3335 13.3881V6.55815C18.3335 6.48483 18.3142 6.41281 18.2775 6.34935C18.2408 6.2859 18.188 6.23325 18.1244 6.19673C18.0608 6.16021 17.9887 6.14111 17.9154 6.14136C17.8421 6.14161 17.7702 6.1612 17.7068 6.19815L13.3335 8.74981" stroke="#D2B377" stroke-width="1.66667" stroke-linecap="round" stroke-linejoin="round"/>
<path d="M11.6665 5H3.33317C2.4127 5 1.6665 5.74619 1.6665 6.66667V13.3333C1.6665 14.2538 2.4127 15 3.33317 15H11.6665C12.587 15 13.3332 14.2538 13.3332 13.3333V6.66667C13.3332 5.74619 12.587 5 11.6665 5Z" stroke="#D2B377" stroke-width="1.66667" stroke-linecap="round" stroke-linejoin="round"/>
</svg>
