<svg width="20" height="20" viewBox="0 0 20 20" fill="none" xmlns="http://www.w3.org/2000/svg">
<g clip-path="url(#clip0_212_1096)">
<path d="M13.3332 17.5V15.8333C13.3332 14.9493 12.982 14.1014 12.3569 13.4763C11.7317 12.8512 10.8839 12.5 9.99984 12.5H4.99984C4.11578 12.5 3.26794 12.8512 2.64281 13.4763C2.01769 14.1014 1.6665 14.9493 1.6665 15.8333V17.5" stroke="#6B5A3D" stroke-width="1.66667" stroke-linecap="round" stroke-linejoin="round"/>
<path d="M13.3335 2.60669C14.0483 2.792 14.6813 3.20941 15.1332 3.79341C15.5851 4.37741 15.8303 5.09493 15.8303 5.83336C15.8303 6.57178 15.5851 7.28931 15.1332 7.8733C14.6813 8.4573 14.0483 8.87471 13.3335 9.06002" stroke="#6B5A3D" stroke-width="1.66667" stroke-linecap="round" stroke-linejoin="round"/>
<path d="M18.3335 17.4998V15.8332C18.3329 15.0946 18.0871 14.3771 17.6346 13.7934C17.1821 13.2097 16.5486 12.7928 15.8335 12.6082" stroke="#6B5A3D" stroke-width="1.66667" stroke-linecap="round" stroke-linejoin="round"/>
<path d="M7.49984 9.16667C9.34079 9.16667 10.8332 7.67428 10.8332 5.83333C10.8332 3.99238 9.34079 2.5 7.49984 2.5C5.65889 2.5 4.1665 3.99238 4.1665 5.83333C4.1665 7.67428 5.65889 9.16667 7.49984 9.16667Z" stroke="#6B5A3D" stroke-width="1.66667" stroke-linecap="round" stroke-linejoin="round"/>
</g>
<defs>
<clipPath id="clip0_212_1096">
<rect width="20" height="20" fill="white"/>
</clipPath>
</defs>
</svg>
