<svg width="28" height="28" viewBox="0 0 28 28" fill="none" xmlns="http://www.w3.org/2000/svg">
<path d="M5.8335 5.83354C5.83337 5.42298 5.94158 5.01965 6.14719 4.66429C6.35281 4.30893 6.64854 4.01411 7.00454 3.8096C7.36054 3.60509 7.76419 3.49813 8.17475 3.49953C8.58531 3.50092 8.98823 3.61061 9.34283 3.81754L23.3393 11.9819C23.6926 12.1868 23.9858 12.4809 24.1898 12.8347C24.3937 13.1885 24.5012 13.5896 24.5016 13.998C24.502 14.4064 24.3951 14.8077 24.1918 15.1619C23.9884 15.516 23.6957 15.8106 23.3428 16.0162L9.34283 24.1829C8.98823 24.3898 8.58531 24.4995 8.17475 24.5009C7.76419 24.5023 7.36054 24.3953 7.00454 24.1908C6.64854 23.9863 6.35281 23.6915 6.14719 23.3361C5.94158 22.9808 5.83337 22.5774 5.8335 22.1669V5.83354Z" stroke="#6B5A3D" stroke-width="2.33333" stroke-linecap="round" stroke-linejoin="round"/>
</svg>
