<svg width="64" height="64" viewBox="0 0 64 64" fill="none" xmlns="http://www.w3.org/2000/svg">
<path d="M39.9998 5.33325H15.9998C14.5853 5.33325 13.2288 5.89515 12.2286 6.89535C11.2284 7.89554 10.6665 9.2521 10.6665 10.6666V53.3332C10.6665 54.7477 11.2284 56.1043 12.2286 57.1045C13.2288 58.1047 14.5853 58.6666 15.9998 58.6666H47.9998C49.4143 58.6666 50.7709 58.1047 51.7711 57.1045C52.7713 56.1043 53.3332 54.7477 53.3332 53.3332V18.6666L39.9998 5.33325Z" stroke="white" stroke-width="5.33333" stroke-linecap="round" stroke-linejoin="round"/>
<path d="M37.3335 5.33325V15.9999C37.3335 17.4144 37.8954 18.771 38.8956 19.7712C39.8958 20.7713 41.2523 21.3333 42.6668 21.3333H53.3335" stroke="white" stroke-width="5.33333" stroke-linecap="round" stroke-linejoin="round"/>
<path d="M26.6668 24H21.3335" stroke="white" stroke-width="5.33333" stroke-linecap="round" stroke-linejoin="round"/>
<path d="M42.6668 34.6667H21.3335" stroke="white" stroke-width="5.33333" stroke-linecap="round" stroke-linejoin="round"/>
<path d="M42.6668 45.3333H21.3335" stroke="white" stroke-width="5.33333" stroke-linecap="round" stroke-linejoin="round"/>
</svg>
