<svg width="24" height="24" viewBox="0 0 24 24" fill="none" xmlns="http://www.w3.org/2000/svg">
<path d="M12 22V6C12 4.114 12 3.172 11.414 2.586C10.828 2 9.886 2 8 2H6C4.114 2 3.172 2 2.586 2.586C2 3.172 2 4.114 2 6V18C2 19.886 2 20.828 2.586 21.414C3.172 22 4.114 22 6 22H12ZM12 22H18C19.886 22 20.828 22 21.414 21.414C22 20.828 22 19.886 22 18V12C22 10.114 22 9.172 21.414 8.586C20.828 8 19.886 8 18 8H12" stroke="white" stroke-width="1.5"/>
<path d="M18.5 16H15.5M18.5 12H15.5M8.5 14H5.5M8.5 10H5.5M8.5 6H5.5" stroke="white" stroke-width="1.5" stroke-linecap="round"/>
</svg>
